<!-- Generated by IcoMoon.io -->
<svg version="1.1" xmlns="http://www.w3.org/2000/svg" width="83" height="89" viewBox="0 0 955 1024">
	<title>
		Rectangle-15
	</title>
	<g id="icomoon-ignore">
	</g>
	<path fill="#dfe2eb" d="M479.246 1024c-45.723 0.005-90.593-9.894-134.275-29.674-50.377-22.813-98.765-50.834-143.813-83.279-1.97-1.419-3.826-2.924-5.58-4.516l-48.459 39.009c-3.361 2.714-8.065 3.017-11.748 0.754-1.678-1.030-41.524-25.66-75.259-65.049-33.853-39.522-48.69-78.337-49.303-79.965-1.34-3.554-0.604-7.563 1.908-10.4l29.782-33.69c0.731-0.824 1.56-1.5 2.45-2.027-15.226-29.644-35.663-84.8-43.033-175.616-6.521-80.421 3.652-146.365 30.232-196.006 1.422-2.658 3.524-7.005 5.8-11.7 3.897-8.040 7.922-16.361 10.699-20.903 2.736-4.476 5.713-9.631 9.017-15.346 25.634-44.371 73.342-126.953 182.346-189.888 92.383-53.332 138.352-58.878 178.904-63.773 24.125-2.909 44.951-5.428 72.989-17.984 71.336-31.933 85.585-58.064 85.723-58.325 1.361-2.601 3.815-4.588 6.664-5.295 2.834-0.717 5.902-0.251 8.316 1.418 7.473 5.172 44.778 32.291 45.181 58.499 0.2 12.705-4.204 21.4-7.421 27.739-3.299 6.508-3.181 6.662-1.79 8.521 1.493 1.987 4.215 3.083 8.531 4.706 10.301 3.876 25.863 9.724 26.585 39.813 0.578 23.965-12.060 37.346-22.345 47.050 20.33 10.149 72.462 37.842 113.812 74.117 26.713 23.432 47.662 50.828 60.54 69.673 9.819 14.379 15.737 23.863 19.118 30.355 13.175-7.144 22.13-10.211 29.091-12.598 8.168-2.796 12.669-4.342 19.737-10.902 23.512-21.819 61.926-4.67 66.57-1.454 2.623 1.813 4.326 4.67 4.675 7.83 0.649 5.868-2.7 9.499-8.787 16.089-10.121 10.958-31.173 33.761-41.284 72.453-9.057 34.672-7.166 74.967-5.497 110.51 1.053 22.444 2.046 43.639 0.025 60.394-6.603 54.771-20.345 168.753-104.361 262.448-40.174 44.806-90.593 83.944-142.746 111.38-0.91 0.691-1.923 1.209-2.991 1.562-12.868 6.651-25.823 12.581-38.747 17.707-44.317 17.579-88.169 26.362-131.253 26.362zM423.074 997.761c76.425 14.328 150.835-2.837 215.692-35.646 4.495-9.161 17.507-39.814 16.535-86.161-1.136-54.618-10.592-71.87-10.689-72.033-2.748-4.839-1.187-11.091 3.585-13.949 4.771-2.863 10.898-1.469 13.855 3.241 1.268 2.023 12.438 21.503 13.707 82.311 0.624 30.167-4.097 54.285-9.217 71.265 44.020-26.335 82.655-59.4 113.214-93.473 15.86-17.688 29.086-36.189 40.149-54.905-3.744-9.161-12.172-35.631-7.595-80.073 5.329-51.76 7.288-79.986 7.308-80.262 0.384-5.644 5.35-9.848 10.904-9.514 5.641 0.384 9.897 5.274 9.502 10.918-0.020 0.286-2 28.803-7.365 80.963-2.343 22.798-0.935 40.101 1.213 52.017 32.702-66.953 40.66-132.99 45.165-170.367 1.811-15.049 0.859-35.414-0.148-56.972-1.738-37.018-3.707-78.968 6.143-116.655 10.531-40.295 31.275-64.993 43.253-78.132-9.528-2.484-22.969-3.799-30.733 3.416-10.255 9.514-18.024 12.176-27.020 15.259-8.505 2.909-19.082 6.534-37.489 17.928-16.99 10.518-17.394 24.303-16.647 45.933 0.5 14.307 1.059 30.526-7.289 44.858-14.596 25.066-32.369 19.305-44.122 15.521-6.363-2.058-11.897-3.851-17.666-2.509-0.542 4.424 3.238 16.827 6.045 26.044 6.455 21.184 15.288 50.193 10.506 79.474-2.675 16.355-7.575 26.362-15.426 31.487-9.161 5.991-18.913 3.487-26.744 1.459-10.295-2.652-12.301-2.412-15.256 1.885-11.318 16.397-14.479 31.364-18.857 52.078-1.847 8.73-3.944 18.629-6.921 29.762-4.649 17.39-13.573 29.552-26.534 36.147-19.69 10.026-48.050 7.266-89.226-8.684-34.707-13.442-66.299-16.535-86.686-16.756-0.107 0-0.215 0-0.322 0-8.889 0-16.913 4.158-25.742 10.651-59.051 56.666-124.081 88.64-188.166 91.543-12.382 0.559-25.424 0.098-38.629-1.121-14.397 3.62-23.077 14.763-26.611 25.409-4.403 13.252-2.95 31.851 14.352 44.305 43.954 31.657 91.154 58.995 140.3 81.245 14.853 6.724 29.72 12.1 44.531 16.238 6.532-4.936 36.754-28.937 64.627-70.343-2.154-4.885-14.74-34.447-16.264-60.629-0.757-13.059-1.197-29.849 0.993-35.692l19.148 7.209c0 0 0.128-0.23 0.272-0.845-0.056 0.236-1.274 6.027 0.015 28.134 0.798 13.743 5.411 29.213 9.272 40.064 31.096-53.967 35.669-73.195 35.71-73.39 1.232-5.469 6.658-8.972 12.132-7.804 5.478 1.172 9.007 6.493 7.892 11.988-0.45 2.227-5.411 23.489-40.553 83.826-23.834 40.92-51.538 68.786-68.104 83.34zM32.303 799.63c5.201 11.701 19.159 40.049 43.345 68.285 24.166 28.221 52.382 48.801 64.453 56.999l38.281-30.821c-14.018-10.774-36.517-28.292-50.873-40.648-37.96-32.635-65.302-70.205-66.447-71.793-0.47-0.65-0.849-1.337-1.151-2.038-1.182-1.567-2.67-3.636-4.393-6.243l-23.215 26.259zM100.361 797.526c10.781 12.239 24.755 26.868 40.471 40.382 9.615 8.269 23.301 19.166 35.418 28.629-0.441-7.518 0.552-15.254 3.094-22.9 2.991-9.012 7.804-16.837 13.957-23.152-35.244-5.914-69.112-15.418-92.94-22.961zM76.691 767.831c14.008 5.13 83.642 29.71 147.711 36.173 3.995-0.733 8.153-1.060 12.382-0.988 19.762 0.358 38.66-1.045 56.116-4.235 64.14-11.737 105.936-46.89 130.904-67.896 4.399-3.707 8.347-7.015 11.861-9.775 1.109-0.871 2.234-1.736 3.37-2.591 17.66-17.072 34.809-36.506 51.226-58.171 64.903-85.655 60.867-126.616 58.929-146.294l-0.276-2.863c-0.456-5.090-3.31-14.313-6.333-24.067-7.855-25.369-18.611-60.108-8.449-85.742 9.379-23.658 33.27-25.788 56.366-27.846 16.566-1.475 33.7-3.006 47.053-11.87 28.616-19.003 14.193-67.896 1.167-93.781-5.151-10.231-11.498-17.927-17.098-24.712-9.599-11.63-19.522-23.658-14.98-41.795 2.901-11.588 10.92-19.075 18.668-26.316 9.83-9.187 18.325-17.124 17.932-33.535-0.393-16.269-4.991-17.995-13.328-21.134-5.591-2.1-12.546-4.716-17.691-11.578-9.165-12.208-3.928-22.541-0.107-30.089 2.741-5.407 5.329-10.518 5.211-18.153-0.143-9.591-14.964-25.138-28.313-35.927-10.393 12.187-34.692 33.802-88.757 58.008-30.866 13.816-54.193 16.632-78.891 19.612-38.614 4.66-82.379 9.939-171.14 61.183-104.264 60.194-148.453 136.687-174.854 182.4-3.396 5.874-6.465 11.179-9.272 15.782-2.256 3.692-6.409 12.264-9.738 19.146-2.424 4.998-4.664 9.616-6.178 12.449-22.892 42.738-32.615 99.239-28.973 168.138 15.313-51.622 46.583-128.376 108.478-199.703 103.757-119.574 305.343-184.823 313.874-187.542 5.401-1.701 11.14 1.27 12.847 6.657 1.713 5.387-1.258 11.148-6.639 12.863-1.938 0.619-185.184 59.953-289.136 164.78 20.146 6.641 66.928 19.95 99.457 12.5 13.379-3.057 24.943-5.961 35.142-8.527 25.244-6.35 43.483-10.937 64.948-11.773 0.133-0.010 0.276-0.010 0.404-0.010 5.467 0 10.004 4.327 10.214 9.842 0.22 5.654-4.173 10.416-9.82 10.631-18.422 0.723-35.048 4.716-57.347 10.314l19.93 19.151c4.076 3.922 4.21 10.4 0.303 14.481-3.923 4.081-10.387 4.215-14.464 0.303l-29.239-28.098c-4.885 1.183-10.050 2.413-15.528 3.661-44.506 10.15-107.184-11.623-119.259-16.079-0.082 0.093-0.163 0.19-0.245 0.282-33.214 38.278-57.298 78.557-74.656 115.32 27.27-14.856 71.797-34.028 100.137-19.863 18.821 9.401 33.141 26.32 47.002 42.681 15.144 17.887 29.449 34.779 48.194 41.129 5.35 1.813 8.218 7.625 6.409 12.986-1.811 5.356-7.605 8.233-12.97 6.416-24.115-8.172-40.952-28.055-57.236-47.285-5.913-6.984-11.682-13.795-17.62-19.863-4.292 13.304-11.446 38.472-11.676 59.022-0.328 29.26 14.264 70.692 14.407 71.107 1.892 5.331-0.885 11.188-6.204 13.083-5.319 1.905-11.175-0.88-13.068-6.211-0.655-1.828-15.967-45.263-15.599-78.204 0.322-28.923 12.056-63.81 15.338-73.017-1.994-1.296-4.025-2.468-6.106-3.513-25.532-12.74-84.159 19.95-102.688 32.414-0.701 0.472-1.437 0.846-2.199 1.122-23.102 58.29-28.718 101.513-28.81 102.271-0.015 0.098-0.026 0.19-0.041 0.286 14.106 92.701 42.312 134.168 48.951 142.854zM481.768 703.202c22.105 0.537 54.791 4.24 90.52 18.076 34.405 13.329 58.832 16.53 72.58 9.524 7.666-3.897 12.908-11.48 16.043-23.182 2.834-10.6 4.783-19.802 6.659-28.696 4.506-21.303 8.393-39.701 22.044-59.477 11.523-16.704 27.593-12.556 37.187-10.078 4.152 1.065 8.852 2.284 10.464 1.218 0.659-0.43 4.071-3.308 6.418-17.646 4.015-24.564-3.692-49.861-9.886-70.184-5.744-18.86-9.897-32.486-4.229-42.662 1.749-3.133 5.247-7.251 12.013-9.032 11.769-3.098 21.706 0.107 29.695 2.688 11.186 3.605 13.855 4.486 20.167-6.35 5.365-9.217 4.955-21.169 4.516-33.822-0.675-19.474-1.51-43.398 21.209-60.563-7.436-13.478-34.477-59.425-75.495-95.42-43.166-37.873-100.468-66.826-114.374-73.595-0.338 0.767-0.614 1.551-0.813 2.351-1.867 7.46 1.136 11.915 10.908 23.765 5.979 7.24 13.416 16.259 19.599 28.537 19.952 39.651 29.797 94.888-8.126 120.076-17.681 11.737-38.328 13.575-56.546 15.204-21.998 1.962-34.656 3.625-39.166 15.004-7.503 18.915 2.019 49.665 8.97 72.12 3.499 11.292 6.517 21.046 7.171 28.292l0.255 2.683c2.199 22.285 6.761 68.644-62.985 160.693-8.095 10.673-16.371 20.837-24.799 30.474z">
	</path>
</svg>
