<svg aria-hidden="true" style="position: absolute; width: 0; height: 0; overflow: hidden;" version="1.1" xmlns="http://www.w3.org/2000/svg" xmlns:xlink="http://www.w3.org/1999/xlink">
	<defs>
		<symbol id="icon-alcohol" viewBox="0 0 28 32">
			<path d="M6.742 2.7c-0.227 0-0.413 0.213-0.413 0.474v0.201c0 0.262 0.185 0.475 0.413 0.475 0.229 0 0.413-0.213 0.413-0.474v-0.201c0-0.263-0.185-0.475-0.413-0.475zM5.542 4.281h-0.175c-0.227 0-0.413 0.213-0.413 0.474 0 0.263 0.185 0.475 0.413 0.475h0.175c0.228 0 0.413-0.213 0.413-0.475s-0.185-0.475-0.413-0.475zM6.185 3.444l-0.123-0.142c-0.069-0.085-0.174-0.139-0.292-0.139s-0.222 0.054-0.291 0.138l-0.001 0.001c-0.075 0.090-0.121 0.208-0.121 0.336s0.046 0.246 0.122 0.337l-0.001-0.001 0.123 0.142c0.070 0.084 0.174 0.137 0.291 0.139h0c0.106 0 0.211-0.046 0.292-0.139 0.075-0.090 0.121-0.208 0.121-0.336s-0.046-0.245-0.122-0.337l0.001 0.001zM6.185 5.397c-0.069-0.085-0.174-0.139-0.291-0.139s-0.222 0.054-0.291 0.138l-0.001 0.001-0.124 0.142c-0.075 0.090-0.121 0.208-0.121 0.336s0.046 0.245 0.122 0.337l-0.001-0.001c0.070 0.084 0.174 0.138 0.291 0.139h0c0.106 0 0.211-0.047 0.292-0.139l0.123-0.142c0.075-0.090 0.121-0.208 0.121-0.336s-0.046-0.245-0.122-0.337l0.001 0.001z">
			</path>
			<path d="M24.749 3.916h-13.939c-0.158-1.015-0.598-1.946-1.265-2.654-0.766-0.814-1.761-1.262-2.803-1.262-2.279 0-4.133 2.134-4.133 4.756s1.854 4.756 4.133 4.756c0.419 0 0.83-0.073 1.227-0.215 0.622 0.675 1.392 1.18 2.262 1.44 0.562 0.169 0.989 0.702 1.088 1.36l0.525 3.496c0.185 1.235 0.783 2.306 1.682 3.015 0.682 0.537 1.089 1.414 1.089 2.345v7.125c-0.314 0.229-0.516 0.633-0.516 1.078l0.001 0.040c-1.031 0.243-1.88 0.466-2.525 0.665-0.439 0.135-0.77 0.254-1.013 0.363-0.226 0.103-0.646 0.293-0.646 0.736 0 0.594 0.671 0.696 1.211 0.778 0.464 0.070 1.107 0.129 1.91 0.174 1.357 0.077 2.733 0.089 2.746 0.089h0.006c0.014 0 1.389-0.013 2.746-0.089 0.803-0.045 1.446-0.103 1.91-0.174 0.54-0.082 1.212-0.183 1.212-0.778 0-0.47-0.377-0.713-1.754-1.129-0.834-0.251-1.874-0.506-2.62-0.68 0-0.003 0-0.008 0-0.012 0-0.339-0.123-0.649-0.327-0.888l0.002 0.002v-7.301c0-0.93 0.407-1.807 1.089-2.345 0.899-0.709 1.497-1.78 1.682-3.015l0.525-3.496c0.098-0.658 0.526-1.191 1.087-1.36 1.885-0.564 3.303-2.274 3.751-4.381l0.005-0.024c0.094-0.453 0.145-0.924 0.145-1.406v-0.443c0-0.313-0.221-0.567-0.491-0.567zM6.742 8.562c-1.824 0-3.307-1.707-3.307-3.806s1.483-3.806 3.307-3.806c0.834 0 1.631 0.358 2.243 1.009 0.497 0.529 0.837 1.21 0.983 1.957h-0.423c-0.327-1.447-1.473-2.494-2.803-2.494-1.598 0-2.897 1.496-2.897 3.334s1.3 3.334 2.897 3.334c0.126-0 0.25-0.010 0.371-0.028l-0.014 0.002c0.079 0.149 0.164 0.293 0.254 0.433-0.183 0.041-0.394 0.065-0.61 0.065-0 0-0.001 0-0.001 0h0zM8.006 3.303c-0.069-0.085-0.174-0.139-0.292-0.139s-0.222 0.054-0.291 0.138l-0.001 0.001-0.123 0.142c-0.076 0.090-0.122 0.208-0.122 0.336 0 0.048 0.006 0.095 0.019 0.139l-0.001-0.004h-0.373c-0.271 0-0.493 0.254-0.493 0.567v0.443c0 0.482 0.051 0.952 0.146 1.406 0.067 0.321 0.143 0.591 0.236 0.854l-0.014-0.047c-1.122-0.029-2.027-1.086-2.027-2.383 0-1.315 0.93-2.385 2.072-2.385 0.877 0 1.642 0.635 1.939 1.545h-0.634c0.050-0.079 0.079-0.175 0.079-0.278 0-0.128-0.045-0.245-0.121-0.337l0.001 0.001zM17.058 30.069c1.451 0.336 2.362 0.59 2.931 0.774-1.042 0.118-2.714 0.195-4.205 0.208-1.489-0.013-3.161-0.090-4.204-0.208 0.545-0.176 1.402-0.417 2.745-0.731 0.371-0.086 0.629-0.487 0.598-0.93-0.001-0.008-0.001-0.016-0.001-0.026v-0c0-0.147 0.087-0.277 0.21-0.315 0.181-0.055 0.306-0.243 0.306-0.459v-7.43c0-0.625-0.137-1.231-0.388-1.77 0.231 0.017 0.482 0.026 0.734 0.026s0.504-0.009 0.735-0.026c-0.245 0.517-0.388 1.124-0.388 1.764 0 0.002 0 0.005 0 0.007v-0 7.526c0 0.162 0.073 0.314 0.193 0.401 0.082 0.063 0.134 0.16 0.134 0.27 0 0.010-0 0.019-0.001 0.029l0-0.001c-0.024 0.423 0.234 0.806 0.601 0.891zM24.416 4.926c0 0.286-0.021 0.566-0.061 0.84h-12.422c-0.227 0-0.413 0.213-0.413 0.475s0.185 0.474 0.413 0.474h12.198c-0.494 1.499-1.591 2.681-2.999 3.102-0.875 0.262-1.539 1.093-1.693 2.118l-0.525 3.495c-0.147 0.981-0.621 1.83-1.335 2.393-0.111 0.087-0.44 0.291-0.499 0.322-0.327 0.148-2.261 0.148-2.59 0-0.060-0.030-0.389-0.234-0.5-0.322-0.714-0.563-1.188-1.413-1.335-2.393l-0.525-3.495c-0.154-1.025-0.818-1.855-1.693-2.118-0.797-0.238-1.494-0.72-2.038-1.365-0.412-0.49-0.739-1.068-0.949-1.7l-0.011-0.037h2.574c0.227 0 0.413-0.212 0.413-0.474s-0.185-0.475-0.413-0.475h-2.798c-0.040-0.274-0.061-0.555-0.061-0.841v-0.061h17.263v0.061z">
			</path>
		</symbol>
		<symbol id="icon-cabbage" viewBox="0 0 30 32">
			<path fill="#dfe2eb" style="fill: var(--color1, #dfe2eb)" d="M14.976 32c-1.429 0-2.831-0.309-4.196-0.928-1.72-0.787-3.195-1.656-4.57-2.654l0.075 0.052c-0.065-0.047-0.122-0.093-0.176-0.143l0.002 0.001-1.514 1.219c-0.054 0.044-0.124 0.071-0.2 0.071-0.062 0-0.119-0.018-0.168-0.048l0.001 0.001c-0.052-0.032-1.298-0.802-2.351-2.033-1.058-1.235-1.522-2.449-1.541-2.499-0.013-0.034-0.021-0.072-0.021-0.113 0-0.081 0.030-0.156 0.081-0.212l-0 0 0.931-1.053c0.022-0.025 0.047-0.046 0.075-0.062l0.001-0.001c-0.476-0.926-1.115-2.65-1.345-5.488-0.203-2.514 0.114-4.574 0.945-6.125 0.044-0.083 0.11-0.219 0.181-0.366 0.122-0.251 0.247-0.511 0.334-0.653 0.086-0.14 0.178-0.301 0.282-0.48 0.801-1.386 2.292-3.967 5.699-5.934 2.887-1.667 4.324-1.84 5.591-1.993 0.754-0.091 1.404-0.17 2.281-0.562 2.229-0.998 2.674-1.815 2.679-1.823 0.043-0.081 0.117-0.141 0.206-0.165l0.002-0.001c0.024-0.007 0.052-0.010 0.080-0.010 0.067 0 0.129 0.020 0.18 0.056l-0.001-0.001c0.234 0.162 1.399 1.009 1.412 1.828 0.006 0.397-0.131 0.669-0.232 0.867-0.103 0.204-0.099 0.209-0.056 0.266 0.047 0.062 0.132 0.096 0.266 0.147 0.322 0.121 0.808 0.304 0.831 1.244 0.018 0.749-0.376 1.167-0.698 1.471 0.635 0.317 2.264 1.182 3.557 2.316 0.835 0.733 1.489 1.589 1.892 2.177 0.307 0.449 0.492 0.746 0.598 0.949 0.412-0.223 0.692-0.319 0.909-0.394 0.255-0.087 0.396-0.136 0.617-0.341 0.735-0.682 1.935-0.146 2.080-0.045 0.080 0.056 0.134 0.143 0.146 0.243l0 0.002c0.020 0.183-0.084 0.297-0.275 0.503-0.316 0.342-0.974 1.055-1.29 2.264-0.283 1.084-0.224 2.343-0.172 3.453 0.033 0.701 0.064 1.364 0.001 1.888-0.206 1.711-0.636 5.273-3.261 8.201-1.256 1.4-2.831 2.623-4.461 3.48-0.027 0.020-0.058 0.037-0.091 0.048l-0.002 0.001c-0.314 0.169-0.713 0.355-1.121 0.521l-0.090 0.032c-1.385 0.549-2.755 0.824-4.102 0.824zM13.221 31.18c2.388 0.448 4.714-0.089 6.741-1.114 0.14-0.286 0.547-1.244 0.517-2.692-0.036-1.707-0.331-2.246-0.334-2.251-0.027-0.046-0.042-0.101-0.042-0.16 0-0.116 0.061-0.218 0.153-0.275l0.001-0.001c0.047-0.029 0.104-0.047 0.165-0.047 0.112 0 0.211 0.058 0.267 0.146l0.001 0.001c0.040 0.063 0.388 0.672 0.428 2.572 0.019 0.943-0.128 1.697-0.288 2.227 1.356-0.824 2.521-1.793 3.526-2.907l0.012-0.014c0.455-0.506 0.869-1.068 1.228-1.667l0.027-0.049c-0.117-0.286-0.381-1.114-0.237-2.502 0.166-1.617 0.228-2.499 0.228-2.508 0.013-0.167 0.152-0.298 0.322-0.298 0.007 0 0.014 0 0.020 0.001l-0.001-0c0.176 0.012 0.309 0.165 0.297 0.341-0.001 0.009-0.063 0.9-0.23 2.53-0.073 0.712-0.029 1.253 0.038 1.625 1.022-2.092 1.271-4.156 1.412-5.324 0.056-0.47 0.027-1.107-0.005-1.78-0.054-1.157-0.116-2.468 0.192-3.646 0.329-1.259 0.977-2.031 1.352-2.441-0.298-0.078-0.718-0.119-0.961 0.107-0.32 0.297-0.563 0.38-0.844 0.477-0.266 0.091-0.596 0.204-1.172 0.56-0.531 0.329-0.544 0.759-0.52 1.435 0.016 0.447 0.033 0.954-0.228 1.402-0.456 0.783-1.011 0.603-1.379 0.485-0.199-0.064-0.372-0.12-0.552-0.078-0.017 0.138 0.101 0.526 0.189 0.814 0.202 0.662 0.478 1.568 0.328 2.483-0.083 0.511-0.237 0.824-0.482 0.984-0.287 0.187-0.591 0.109-0.836 0.046-0.322-0.083-0.384-0.076-0.477 0.059-0.354 0.512-0.452 0.98-0.589 1.628-0.058 0.273-0.123 0.582-0.216 0.93-0.145 0.544-0.424 0.924-0.829 1.13-0.616 0.313-1.502 0.227-2.788-0.271-0.802-0.319-1.732-0.51-2.704-0.523l-0.006-0h-0.010c-0.278 0-0.529 0.13-0.804 0.333-1.845 1.771-3.877 2.77-5.88 2.861-0.387 0.018-0.795 0.003-1.207-0.035-0.45 0.113-0.721 0.461-0.832 0.794-0.137 0.414-0.092 0.995 0.449 1.384 1.267 0.924 2.706 1.771 4.226 2.474l0.158 0.066c0.384 0.18 0.846 0.353 1.323 0.49l0.068 0.017c0.204-0.154 1.149-0.904 2.020-2.198-0.067-0.153-0.46-1.076-0.508-1.895-0.024-0.408-0.037-0.933 0.031-1.115l0.598 0.225s0.004-0.007 0.009-0.027c-0.002 0.007-0.040 0.188 0 0.879 0.025 0.43 0.169 0.913 0.29 1.252 0.972-1.686 1.115-2.287 1.116-2.293 0.034-0.144 0.161-0.25 0.313-0.25 0.023 0 0.046 0.002 0.068 0.007l-0.002-0c0.145 0.031 0.253 0.159 0.253 0.311 0 0.022-0.002 0.044-0.007 0.065l0-0.002c-0.014 0.070-0.169 0.734-1.267 2.62-0.745 1.279-1.611 2.15-2.128 2.604zM1.010 24.989c0.375 0.815 0.828 1.518 1.365 2.146l-0.010-0.012c0.755 0.882 1.637 1.525 2.014 1.781l1.196-0.963c-0.438-0.337-1.141-0.884-1.59-1.27-1.186-1.020-2.040-2.194-2.076-2.244-0.013-0.018-0.025-0.039-0.035-0.061l-0.001-0.002c-0.040-0.052-0.085-0.116-0.129-0.181l-0.009-0.014-0.725 0.82zM3.136 24.923c0.337 0.383 0.773 0.84 1.265 1.262 0.301 0.259 0.728 0.599 1.107 0.895-0.002-0.032-0.003-0.070-0.003-0.107 0-0.218 0.036-0.427 0.103-0.621l-0.004 0.013c0.094-0.282 0.244-0.525 0.437-0.724l-0 0c-1.102-0.185-2.16-0.482-2.904-0.718zM2.397 23.995c0.438 0.16 2.614 0.928 4.616 1.13 0.105-0.020 0.226-0.031 0.349-0.031 0.013 0 0.027 0 0.040 0l-0.002-0c0.618 0.011 1.208-0.032 1.754-0.132 2.005-0.367 3.31-1.465 4.091-2.121 0.137-0.116 0.261-0.219 0.37-0.306l0.105-0.081c0.569-0.555 1.094-1.148 1.573-1.779l0.028-0.039c2.028-2.677 1.902-3.956 1.842-4.572l-0.009-0.089c-0.014-0.159-0.104-0.447-0.198-0.752-0.246-0.793-0.582-1.878-0.264-2.679 0.293-0.74 1.039-0.806 1.761-0.87 0.518-0.046 1.053-0.094 1.471-0.371 0.894-0.594 0.443-2.122 0.036-2.931-0.161-0.32-0.359-0.56-0.534-0.772-0.3-0.363-0.61-0.739-0.468-1.306 0.091-0.362 0.341-0.596 0.583-0.822 0.307-0.287 0.573-0.535 0.561-1.048-0.012-0.508-0.156-0.562-0.417-0.66-0.175-0.066-0.392-0.147-0.553-0.362-0.287-0.381-0.123-0.704-0.004-0.94 0.086-0.169 0.167-0.329 0.163-0.567-0.004-0.299-0.467-0.785-0.884-1.123-0.325 0.381-1.084 1.056-2.774 1.813-0.964 0.431-1.693 0.52-2.465 0.613-1.207 0.146-2.574 0.311-5.348 1.912-3.258 1.881-4.639 4.271-5.464 5.7-0.106 0.183-0.202 0.349-0.29 0.493-0.070 0.115-0.2 0.383-0.304 0.598-0.076 0.156-0.146 0.301-0.193 0.389-0.716 1.335-1.019 3.101-0.906 5.254 0.479-1.613 1.456-4.011 3.39-6.241 3.242-3.736 9.542-5.775 9.809-5.861 0.029-0.010 0.062-0.015 0.097-0.015 0.177 0 0.32 0.143 0.32 0.32 0 0.142-0.093 0.263-0.221 0.304l-0.002 0.001c-0.061 0.019-5.787 1.873-9.036 5.149 0.629 0.207 2.091 0.623 3.108 0.39 0.418-0.096 0.779-0.186 1.098-0.266 0.789-0.198 1.359-0.342 2.030-0.368l0.013-0c0.002-0 0.004-0 0.006-0 0.177 0 0.32 0.143 0.32 0.32 0 0.175-0.14 0.317-0.314 0.32h-0c-0.576 0.022-1.095 0.147-1.792 0.322l0.623 0.598c0.061 0.058 0.099 0.14 0.099 0.231 0 0.177-0.143 0.32-0.32 0.32-0.086 0-0.164-0.034-0.221-0.089l0 0-0.914-0.878c-0.153 0.037-0.314 0.075-0.485 0.114-1.391 0.317-3.35-0.363-3.727-0.502l-0.008 0.009c-1.038 1.196-1.791 2.455-2.333 3.604 0.852-0.464 2.244-1.064 3.129-0.621 0.588 0.294 1.035 0.822 1.469 1.334 0.474 0.559 0.92 1.087 1.507 1.285 0.127 0.044 0.217 0.163 0.217 0.303 0 0.177-0.143 0.32-0.32 0.32-0.037 0-0.072-0.006-0.105-0.018l0.002 0.001c-0.754-0.255-1.28-0.877-1.789-1.478-0.185-0.218-0.365-0.431-0.55-0.621-0.134 0.416-0.358 1.202-0.365 1.844-0.010 0.914 0.446 2.209 0.45 2.222 0.012 0.032 0.019 0.069 0.019 0.107 0 0.177-0.143 0.32-0.32 0.32-0.138 0-0.256-0.088-0.3-0.21l-0.001-0.002c-0.021-0.057-0.499-1.414-0.488-2.444 0.010-0.904 0.377-1.994 0.48-2.282-0.053-0.035-0.115-0.071-0.18-0.104l-0.011-0.005c-0.798-0.398-2.63 0.623-3.209 1.013-0.020 0.014-0.042 0.026-0.067 0.035l-0.002 0.001c-0.722 1.821-0.897 3.172-0.9 3.196l-0.001 0.009c0.441 2.897 1.323 4.193 1.53 4.464zM15.055 21.975c1.024 0.027 1.992 0.232 2.886 0.585l-0.057-0.020c1.075 0.417 1.838 0.517 2.268 0.298 0.239-0.122 0.403-0.359 0.502-0.724 0.088-0.331 0.149-0.618 0.208-0.897 0.141-0.666 0.262-1.24 0.689-1.859 0.36-0.522 0.862-0.392 1.162-0.315 0.13 0.033 0.277 0.071 0.327 0.038 0.020-0.014 0.127-0.104 0.201-0.552 0.125-0.768-0.115-1.558-0.309-2.193-0.179-0.59-0.309-1.015-0.132-1.333 0.055-0.098 0.164-0.227 0.375-0.282 0.368-0.097 0.678 0.004 0.928 0.084 0.35 0.113 0.433 0.14 0.631-0.198 0.168-0.288 0.155-0.662 0.141-1.057-0.021-0.608-0.047-1.356 0.663-1.893-0.232-0.421-1.077-1.857-2.359-2.982-1.349-1.184-3.14-2.088-3.574-2.3-0.011 0.024-0.019 0.048-0.026 0.073-0.058 0.233 0.036 0.372 0.341 0.743 0.187 0.226 0.419 0.508 0.612 0.892 0.623 1.239 0.931 2.965-0.254 3.752-0.553 0.367-1.198 0.424-1.767 0.475-0.687 0.061-1.083 0.113-1.224 0.469-0.234 0.591 0.063 1.552 0.28 2.254 0.109 0.353 0.203 0.658 0.224 0.884l0.008 0.084c0.069 0.696 0.211 2.145-1.968 5.021-0.275 0.362-0.529 0.672-0.793 0.973l0.017-0.020z">
			</path>
		</symbol>
		<symbol id="icon-calculator" viewBox="0 0 32 32">
			<path fill="#52555f" style="fill: var(--color2, #52555f)" d="M27.25 0h-22.498c-1.554 0-2.814 1.259-2.816 2.813v26.375c0 1.552 1.261 2.813 2.813 2.813h22.499c1.553-0.002 2.811-1.26 2.813-2.813v-26.375c-0.002-1.552-1.259-2.81-2.811-2.813h-0zM28.187 29.187c-0.001 0.517-0.42 0.937-0.938 0.938h-22.498c-0.517-0.001-0.937-0.42-0.938-0.938v-26.375c0-0.517 0.421-0.938 0.938-0.938h22.496c0.517 0 0.938 0.421 0.938 0.938v26.374z">
			</path>
			<path fill="#52555f" style="fill: var(--color2, #52555f)" d="M25.376 3.75h-18.752c-0.517 0.001-0.936 0.42-0.936 0.938 0 0 0 0 0 0v0 7.624c0 0.518 0.419 0.938 0.938 0.938h18.749c0.518 0 0.938-0.42 0.938-0.938v0-7.624c0-0.518-0.42-0.938-0.938-0.938v0zM24.437 11.374h-16.874v-5.749h16.874v5.749zM10.374 15.125h-3.749c-0.518 0-0.938 0.42-0.938 0.938v3.75c0 0.517 0.419 0.938 0.938 0.938h3.749c0.518 0 0.938-0.42 0.938-0.938v0-3.75c0-0.518-0.42-0.938-0.938-0.938v0zM9.437 18.875h-1.874v-1.875h1.874v1.875zM10.374 22.624h-3.749c0 0 0 0 0 0-0.518 0-0.938 0.42-0.938 0.938 0 0.001 0 0.001 0 0.002v-0 3.749c0 0.518 0.419 0.938 0.938 0.938h3.749c0.518 0 0.938-0.42 0.938-0.938v0-3.749c0-0.518-0.42-0.938-0.938-0.938v0zM9.437 26.374h-1.874v-1.875h1.874v1.875zM17.875 15.125h-3.75c-0.518 0-0.938 0.42-0.938 0.938v3.75c0 0.517 0.421 0.938 0.938 0.938h3.75c0.518 0 0.938-0.42 0.938-0.938v0-3.75c0-0.518-0.42-0.938-0.938-0.938v0zM16.938 18.875h-1.875v-1.875h1.875v1.875zM17.875 22.624h-3.75c0 0 0 0 0 0-0.518 0-0.938 0.42-0.938 0.938 0 0.001 0 0.001 0 0.002v-0 3.749c0 0.518 0.421 0.938 0.938 0.938h3.75c0.518 0 0.938-0.42 0.938-0.938v0-3.749c0-0.518-0.42-0.938-0.938-0.938v0zM16.938 26.374h-1.875v-1.875h1.875v1.875zM25.376 15.125h-3.75c-0.518 0-0.938 0.42-0.938 0.938v0 11.25c0 0.518 0.419 0.938 0.938 0.938h3.749c0.518 0 0.938-0.42 0.938-0.938v0-11.248c0-0 0-0.001 0-0.002 0-0.518-0.42-0.938-0.938-0.938 0 0 0 0 0 0v0zM24.437 26.374h-1.874v-9.374h1.874v9.376z">
			</path>
		</symbol>
		<symbol id="icon-calendar" viewBox="0 0 32 32">
			<path fill="#52555f" style="fill: var(--color2, #52555f)" d="M27.96 3.307h-2.099v-0.514c0-0.012 0.001-0.025 0.001-0.039 0-0.518-0.42-0.938-0.938-0.938s-0.938 0.42-0.938 0.938c0 0.014 0 0.027 0.001 0.041l-0-0.002v0.512h-2.587v-0.512c0-0.518-0.42-0.938-0.938-0.938s-0.938 0.42-0.938 0.938v0 0.512h-2.587v-0.512c0-0.518-0.42-0.938-0.938-0.938s-0.938 0.42-0.938 0.938v0.512h-2.587v-0.512c0-0.518-0.42-0.938-0.938-0.938s-0.938 0.42-0.938 0.938v0 0.512h-2.587v-0.512c-0.021-0.501-0.433-0.899-0.937-0.899s-0.915 0.398-0.937 0.897l-0 0.002v0.512h-2.099c-2.231 0.002-4.039 1.81-4.040 4.042v18.759c0.002 2.23 1.81 4.038 4.040 4.040h23.92c2.23-0.002 4.038-1.809 4.040-4.040v-18.762c-0.003-2.23-1.81-4.037-4.040-4.038h-0zM30.125 26.104c0 1.194-0.971 2.165-2.165 2.165h-23.92c-1.195-0.001-2.163-0.969-2.165-2.163v-15.335h28.25v15.334zM30.125 8.896h-28.25v-1.55c0-1.192 0.971-2.163 2.165-2.163h2.099v0.362c0.021 0.501 0.433 0.899 0.937 0.899s0.915-0.398 0.937-0.897l0-0.002v-0.36h2.587v0.362c0 0.518 0.42 0.938 0.938 0.938s0.938-0.42 0.938-0.938v0-0.362h2.587v0.362c0 0.518 0.42 0.938 0.938 0.938s0.938-0.42 0.938-0.938v0-0.362h2.587v0.362c0 0.518 0.42 0.938 0.938 0.938s0.938-0.42 0.938-0.938v0-0.362h2.587v0.362c-0 0.012-0.001 0.025-0.001 0.039 0 0.518 0.42 0.938 0.938 0.938s0.938-0.42 0.938-0.938c0-0.014-0-0.027-0.001-0.041l0 0.002v-0.362h2.099c1.194 0 2.165 0.971 2.165 2.163v1.552z">
			</path>
			<path fill="#52555f" style="fill: var(--color2, #52555f)" d="M10.451 12.771h-3.699c-0.518 0-0.938 0.42-0.938 0.938v0 3.827c0 0.517 0.419 0.938 0.938 0.938h3.699c0.518 0 0.938-0.42 0.938-0.938v-3.827c0-0.518-0.42-0.938-0.938-0.938v0zM9.514 16.598h-1.824v-1.952h1.824v1.952zM17.85 12.771h-3.699c-0.518 0-0.938 0.42-0.938 0.938v0 3.827c0 0.517 0.419 0.938 0.938 0.938h3.699c0.518 0 0.938-0.42 0.938-0.938v-3.827c0-0.518-0.42-0.938-0.938-0.938v0zM16.912 16.598h-1.824v-1.952h1.824v1.952zM25.248 12.771h-3.699c-0.518 0-0.938 0.42-0.938 0.938v0 3.827c0 0.517 0.421 0.938 0.938 0.938h3.699c0.518 0 0.938-0.42 0.938-0.938v-3.827c0-0.518-0.42-0.938-0.938-0.938v0zM24.31 16.598h-1.824v-1.952h1.824v1.952zM10.451 20.042h-3.699c-0.518 0-0.938 0.42-0.938 0.938v3.827c0 0.517 0.419 0.938 0.938 0.938h3.699c0.518 0 0.938-0.42 0.938-0.938v-3.827c0-0.518-0.42-0.938-0.938-0.938v0zM9.514 23.869h-1.824v-1.952h1.824v1.952zM17.85 20.042h-3.699c-0.518 0-0.938 0.42-0.938 0.938v0 3.827c0 0.517 0.419 0.938 0.938 0.938h3.699c0.518 0 0.938-0.42 0.938-0.938v-3.827c0-0.518-0.42-0.938-0.938-0.938v0zM16.912 23.869h-1.824v-1.952h1.824v1.952zM25.248 20.042h-3.699c-0.518 0-0.938 0.42-0.938 0.938v3.827c0 0.517 0.421 0.938 0.938 0.938h3.699c0.518 0 0.938-0.42 0.938-0.938v-3.827c0-0.518-0.42-0.938-0.938-0.938v0zM24.31 23.869h-1.824v-1.952h1.824v1.952z">
			</path>
		</symbol>
		<symbol id="icon-chart" viewBox="0 0 32 32">
			<path fill="#52555f" style="fill: var(--color2, #52555f)" d="M0 9.6h6.857v22.4h-6.857v-22.4zM12.8 0h6.4v32h-6.4v-32zM25.6 18.286h6.4v13.714h-6.4v-13.714z">
			</path>
		</symbol>
		<symbol id="icon-education" viewBox="0 0 32 32">
			<path d="M31.379 6.431h-2.109v-0.72c0-0.007 0-0.016 0-0.024 0-0.281-0.187-0.518-0.443-0.595l-0.004-0.001c-1.329-0.363-2.855-0.571-4.43-0.571-0.015 0-0.030 0-0.044 0h0.002c-2.481 0-5.862 0.558-8.361 3.102-2.481-2.568-5.887-3.102-8.362-3.102-0.013-0-0.027-0-0.042-0-1.575 0-3.101 0.208-4.552 0.599l0.122-0.028c-0.274 0.080-0.458 0.335-0.446 0.62v0.714h-2.090c-0.342 0.001-0.62 0.278-0.62 0.621v19.812c0.001 0.342 0.278 0.619 0.621 0.619 0.111 0 0.216-0.029 0.306-0.081l-0.003 0.002c0.062-0.031 6.265-3.424 14.924-1.241h0.149c0.049 0.006 0.099 0.006 0.149 0 8.684-2.202 14.887 1.185 14.924 1.24 0.089 0.052 0.196 0.083 0.31 0.083 0.341 0 0.618-0.276 0.621-0.616v-19.812c0-0.343-0.278-0.62-0.621-0.62zM1.241 25.87v-18.199h1.482v15.557c-0 0.002-0 0.005-0 0.007 0 0.343 0.278 0.621 0.621 0.621 0.033 0 0.065-0.003 0.097-0.008l-0.003 0c1.157-0.186 2.499-0.299 3.865-0.31l0.012-0c1.798-0.031 3.589 0.239 5.297 0.8-0.822-0.105-1.774-0.165-2.739-0.165-3.112 0-6.079 0.623-8.782 1.752l0.151-0.056zM7.313 22.304c-1.192 0.003-2.363 0.082-3.512 0.232l0.138-0.015v-16.32c1.104-0.257 2.373-0.406 3.676-0.409h0.002c2.32 0 5.52 0.534 7.741 3.040l0.019 15.451c-1.29-0.844-3.809-1.979-8.063-1.979zM16.617 8.831c2.221-2.481 5.421-3.039 7.741-3.039 1.237 0.004 2.47 0.141 3.678 0.41v16.319c-1.003-0.136-2.167-0.217-3.349-0.223l-0.007-0c-4.23 0-6.754 1.135-8.063 1.978v-15.445zM30.753 25.871c-2.555-1.075-5.524-1.7-8.639-1.7-0.971 0-1.928 0.061-2.867 0.178l0.112-0.011c1.5-0.509 3.228-0.803 5.025-0.803 0.104 0 0.209 0.001 0.313 0.003l-0.016-0c1.306 0.007 2.61 0.109 3.902 0.304 0.028 0.004 0.060 0.007 0.093 0.007 0.343 0 0.621-0.278 0.621-0.621 0-0.002 0-0.004-0-0.007v0-15.551h1.483l-0.025 18.199z">
			</path>
		</symbol>
		<symbol id="icon-equipment" viewBox="0 0 32 32">
			<path d="M21.709 9.697c-0.345 0-0.625 0.28-0.625 0.625s0.28 0.625 0.625 0.625v0c0.345 0 0.625-0.28 0.625-0.625s-0.28-0.625-0.625-0.625v0zM10.353 21.053c-0.345 0-0.625 0.28-0.625 0.625s0.28 0.625 0.625 0.625v0c0.345 0 0.625-0.28 0.625-0.625s-0.28-0.625-0.625-0.625v0z">
			</path>
			<path d="M31.254 3.845c-0.043-0.010-0.091-0.016-0.142-0.016-0.173 0-0.33 0.071-0.444 0.185l-0 0-2.591 2.611h-1.242l-1.367-1.417v-1.259l2.554-2.592c0.111-0.113 0.18-0.268 0.18-0.439 0-0.274-0.176-0.506-0.421-0.591l-0.004-0.001c-0.593-0.206-1.277-0.326-1.989-0.326-0.003 0-0.005 0-0.008 0h0c-2.035 0-3.885 0.949-5.074 2.605-1.113 1.549-1.455 3.448-0.964 5.265l-4.604 4.604-7.67-7.687v-1.509c0-0.219-0.115-0.423-0.303-0.536l-4.419-2.652c-0.092-0.056-0.203-0.089-0.321-0.089-0.173 0-0.329 0.070-0.442 0.183v0l-1.768 1.767c-0.113 0.113-0.183 0.27-0.183 0.442 0 0.119 0.033 0.23 0.091 0.324l-0.002-0.003 2.651 4.419c0.113 0.189 0.317 0.303 0.536 0.303l1.509 0.001 7.67 7.687-4.586 4.586c-1.817-0.491-3.717-0.147-5.267 0.966-1.654 1.189-2.602 3.038-2.602 5.074 0 0.682 0.11 1.354 0.326 1.995 0.086 0.25 0.318 0.426 0.592 0.426 0.174 0 0.331-0.071 0.444-0.185l0-0 2.591-2.611h1.249l1.423 1.423v1.25l-2.611 2.591c-0.114 0.113-0.185 0.27-0.185 0.444 0 0.274 0.176 0.506 0.421 0.591l0.004 0.001c0.642 0.216 1.313 0.326 1.996 0.326 2.035 0 3.884-0.949 5.073-2.603 1.114-1.55 1.457-3.45 0.966-5.267l3.683-3.683 0.844 0.916-0.387 0.387c-0.109 0.112-0.177 0.266-0.177 0.436 0 0.345 0.28 0.625 0.625 0.625 0.17 0 0.323-0.067 0.436-0.177l0.351-0.351 7.934 8.618c0.679 0.679 1.616 1.099 2.652 1.099s1.973-0.42 2.652-1.099l0-0c0.677-0.679 1.096-1.617 1.096-2.652s-0.419-1.972-1.096-2.652l0 0-0.020-0.019-8.613-7.901 0.347-0.347c0.113-0.113 0.183-0.269 0.183-0.442 0-0.345-0.28-0.625-0.625-0.625-0.173 0-0.329 0.070-0.442 0.183v0l-0.385 0.385-0.918-0.843 3.701-3.701c0.526 0.141 1.069 0.211 1.619 0.211 3.446 0 6.25-2.803 6.25-6.249 0-0.683-0.11-1.354-0.326-1.996-0.069-0.206-0.24-0.36-0.451-0.409zM5.518 6.371c-0.112-0.11-0.265-0.177-0.434-0.177-0.003 0-0.006 0-0.009 0h-1.412l-2.219-3.705 1.077-1.078 3.697 2.219v1.414c0 0.166 0.066 0.324 0.183 0.441l7.854 7.871-0.884 0.884-7.853-7.87zM21.415 18.562l8.642 7.928c0.452 0.452 0.732 1.077 0.732 1.768 0 1.381-1.119 2.5-2.5 2.5-0.691 0-1.316-0.28-1.768-0.733v0l-7.941-8.627 2.837-2.837zM20.494 17.717l-2.762 2.762-0.844-0.917 2.688-2.688 0.918 0.843zM25.781 11.25c-0.002 0-0.003 0-0.005 0-0.57 0-1.117-0.095-1.627-0.271l0.035 0.011c-0.059-0.021-0.128-0.033-0.199-0.033-0.173 0-0.329 0.070-0.442 0.183v0l-12.37 12.371c-0.113 0.113-0.183 0.269-0.183 0.442 0 0.071 0.012 0.14 0.034 0.204l-0.001-0.004c0.52 1.543 0.271 3.189-0.682 4.515-0.907 1.266-2.374 2.082-4.031 2.082-0.009 0-0.019-0-0.028-0h0.001c-0.183 0-0.365-0.010-0.545-0.029l1.985-1.97c0.118-0.117 0.185-0.277 0.185-0.443v-1.768c0-0.166-0.066-0.325-0.183-0.442l-1.789-1.789c-0.113-0.113-0.269-0.183-0.442-0.183-0 0-0 0-0 0h-1.769c-0.166 0-0.326 0.066-0.443 0.185l-1.97 1.985c-0.019-0.163-0.029-0.351-0.029-0.542 0-0.001 0-0.002 0-0.003v0c-0-0.008-0-0.018-0-0.027 0-1.657 0.815-3.123 2.067-4.020l0.015-0.010c1.327-0.953 2.973-1.202 4.515-0.682 0.225 0.076 0.474 0.018 0.642-0.15l12.371-12.371c0.168-0.168 0.226-0.416 0.15-0.641-0.52-1.543-0.272-3.188 0.681-4.514 0.907-1.267 2.374-2.083 4.032-2.083 0.009 0 0.019 0 0.028 0h-0.001c0.189 0 0.376 0.010 0.562 0.031l-1.944 1.973c-0.115 0.117-0.179 0.274-0.179 0.439v1.768c0 0.162 0.063 0.318 0.175 0.434l1.727 1.789c0.118 0.123 0.28 0.191 0.45 0.191h1.768c0.167 0 0.326-0.066 0.444-0.185l1.969-1.985c0.019 0.18 0.029 0.362 0.029 0.545 0 2.757-2.243 5-5 5z">
			</path>
			<path d="M19.499 11.647l-7.821 7.822c-0.109 0.112-0.177 0.266-0.177 0.436 0 0.345 0.28 0.625 0.625 0.625 0.17 0 0.323-0.067 0.436-0.177l7.821-7.821c0.113-0.113 0.183-0.269 0.183-0.442 0-0.345-0.28-0.625-0.625-0.625-0.173 0-0.329 0.070-0.442 0.183v0zM27.397 28.25c0.113 0.113 0.269 0.182 0.441 0.182 0.345 0 0.625-0.28 0.625-0.625 0-0.173-0.070-0.33-0.184-0.443l-5.634-5.615c-0.112-0.109-0.266-0.176-0.435-0.176-0.345 0-0.625 0.28-0.625 0.625 0 0.17 0.068 0.324 0.178 0.437l-0-0 5.634 5.615z">
			</path>
		</symbol>
		<symbol id="icon-extra-income" viewBox="0 0 31 32">
			<path d="M11.268 19.154c0-0.001 0-0.002 0-0.003 0-0.251-0.202-0.454-0.452-0.456h-4.389c-0.25 0.002-0.452 0.205-0.452 0.456 0 0.001 0 0.002 0 0.003v-0 2.968c0 0.254 0.202 0.46 0.452 0.46h4.389c0.25 0 0.452-0.205 0.452-0.459v-2.968zM10.363 21.663h-3.484v-2.050h3.484v2.050zM22.032 21.592h2.438c0.25 0 0.452-0.205 0.452-0.459 0-0.001 0-0.002 0-0.003 0-0.251-0.202-0.454-0.452-0.456h-2.439c-0.25 0.002-0.452 0.205-0.452 0.456 0 0.001 0 0.002 0 0.003v-0c0 0.254 0.202 0.459 0.452 0.459zM22.032 19.613h2.438c0.25 0 0.452-0.205 0.452-0.459 0-0.001 0-0.002 0-0.003 0-0.251-0.202-0.454-0.452-0.456h-2.439c-0.25 0.002-0.452 0.205-0.452 0.456 0 0.001 0 0.002 0 0.003v-0c0 0.254 0.202 0.459 0.452 0.459z">
			</path>
			<path d="M26.421 24.106c-0.25 0.002-0.452 0.205-0.452 0.456 0 0.001 0 0.002 0 0.003v-0 5.907c0 0.088-0.071 0.159-0.157 0.159h-20.726c-0.087-0.001-0.157-0.071-0.157-0.158 0-0 0-0 0-0.001v0-10.163c0-0.001 0-0.002 0-0.003 0-0.251-0.202-0.454-0.452-0.456h-0c-0.25 0.002-0.453 0.205-0.453 0.456 0 0.001 0 0.002 0 0.003v-0 10.162c0 0.594 0.477 1.078 1.062 1.078h20.726c0.585 0 1.062-0.483 1.062-1.078v-5.906c0-0.001 0-0.002 0-0.003 0-0.251-0.202-0.454-0.452-0.456h-0zM25.811 15.788h-7.472v-2.329c2.338-1.108 3.962-3.517 3.962-6.303 0-3.834-3.074-6.953-6.853-6.953-1.311 0-2.586 0.377-3.687 1.091-1.069 0.701-1.916 1.66-2.465 2.79l-0.018 0.041c-0.029 0.059-0.046 0.128-0.046 0.201 0 0.18 0.103 0.336 0.253 0.412l0.003 0.001c0.225 0.11 0.496 0.015 0.605-0.213 1.004-2.1 3.057-3.404 5.355-3.404 3.28 0 5.948 2.707 5.948 6.035s-2.667 6.035-5.948 6.035c-3.28 0-5.948-2.707-5.948-6.035 0-0.234 0.013-0.471 0.039-0.702 0.002-0.016 0.003-0.035 0.003-0.054 0-0.233-0.174-0.425-0.398-0.454l-0.002-0c-0.015-0.002-0.033-0.003-0.051-0.003-0.234 0-0.426 0.177-0.451 0.404l-0 0.002c-0.029 0.241-0.045 0.52-0.045 0.803 0 0.002 0 0.003 0 0.005v-0c0 2.786 1.624 5.195 3.962 6.303v2.329h-7.472c-0.585 0-1.062 0.483-1.062 1.078v1.291c0 0.254 0.202 0.46 0.452 0.46s0.452-0.206 0.452-0.46v-1.291c0-0.088 0.071-0.159 0.157-0.159h5.891l4.132 4.791c0.083 0.096 0.205 0.156 0.34 0.156s0.257-0.060 0.34-0.155l0-0.001 4.132-4.791h5.89c0.087 0 0.157 0.072 0.157 0.16v5.545c0 0.254 0.202 0.459 0.452 0.459s0.452-0.206 0.452-0.459v-5.545c0-0.595-0.476-1.078-1.062-1.078zM15.448 20.497l-3.27-3.791h0.831c0.25 0 0.452-0.205 0.452-0.459v-2.436c0.629 0.193 1.296 0.298 1.986 0.298s1.357-0.105 1.986-0.298v2.436c0 0.254 0.202 0.459 0.452 0.459h0.831l-3.27 3.792z">
			</path>
			<path d="M6.426 27.096h1.219c0.25 0 0.452-0.206 0.452-0.459 0-0.001 0-0.003 0-0.004 0-0.251-0.202-0.454-0.452-0.456h-1.22c-0.25 0.002-0.452 0.205-0.452 0.456 0 0.001 0 0.003 0 0.004v-0c0 0.254 0.202 0.459 0.452 0.459zM10.815 26.178h-1.219c-0.25 0.002-0.452 0.205-0.452 0.456 0 0.001 0 0.003 0 0.004v-0c0 0.254 0.202 0.459 0.452 0.459h1.219c0.25 0 0.452-0.206 0.452-0.459 0-0.001 0-0.003 0-0.004 0-0.251-0.202-0.454-0.452-0.456h-0zM13.985 27.096c0.25 0 0.452-0.206 0.452-0.459 0-0.001 0-0.003 0-0.004 0-0.251-0.202-0.454-0.452-0.456h-1.22c-0.25 0.002-0.452 0.205-0.452 0.456 0 0.001 0 0.003 0 0.004v-0c0 0.254 0.202 0.459 0.452 0.459h1.219zM17.155 27.096c0.25 0 0.452-0.206 0.452-0.459 0-0.001 0-0.003 0-0.004 0-0.251-0.202-0.454-0.452-0.456h-1.22c-0.25 0.002-0.452 0.205-0.452 0.456 0 0.001 0 0.003 0 0.004v-0c0 0.254 0.203 0.459 0.452 0.459h1.219zM6.426 29.57h4.877c0.25 0 0.452-0.205 0.452-0.459 0-0.001 0-0.002 0-0.003 0-0.251-0.202-0.454-0.452-0.456h-4.877c-0.25 0.002-0.452 0.205-0.452 0.456 0 0.001 0 0.002 0 0.003v-0c0 0.254 0.203 0.459 0.452 0.459zM19.141 27.874c0 0.935 0.75 1.696 1.672 1.696 0.48 0 0.914-0.207 1.219-0.537 0.303 0.33 0.737 0.537 1.219 0.537h0c0.921 0 1.672-0.761 1.672-1.696 0-0.936-0.75-1.697-1.672-1.697-0.481 0-0.914 0.207-1.219 0.537-0.303-0.33-0.737-0.537-1.219-0.537h-0c-0.921 0-1.672 0.761-1.672 1.697zM23.251 27.096c0.422 0 0.766 0.349 0.766 0.778s-0.344 0.778-0.767 0.778c-0.423 0-0.767-0.349-0.767-0.778s0.344-0.778 0.767-0.778zM21.58 27.874c0 0.429-0.344 0.778-0.767 0.778s-0.767-0.349-0.767-0.778c0-0.429 0.344-0.778 0.767-0.778s0.767 0.349 0.767 0.778zM13.949 9.558c-0.070-0.047-0.156-0.075-0.248-0.075-0.158 0-0.297 0.082-0.377 0.206l-0.001 0.002c-0.046 0.071-0.074 0.158-0.074 0.252 0 0.16 0.081 0.3 0.203 0.384l0.002 0.001c0.585 0.388 0.985 0.504 1.501 0.532v0.506c0 0.254 0.203 0.46 0.452 0.46 0.25 0 0.453-0.206 0.453-0.46v-0.542c1.026-0.202 1.625-1.060 1.758-1.861 0.17-1.028-0.36-1.922-1.351-2.278-0.134-0.048-0.27-0.098-0.407-0.151v-2.202c0.345 0.083 0.551 0.259 0.569 0.276 0.080 0.074 0.186 0.119 0.304 0.119 0.132 0 0.25-0.057 0.332-0.148l0-0c0.074-0.082 0.12-0.191 0.12-0.311 0-0.133-0.056-0.253-0.146-0.337l-0-0c-0.026-0.024-0.463-0.424-1.18-0.532v-0.452c0-0.001 0-0.002 0-0.003 0-0.251-0.202-0.454-0.452-0.456h-0c-0.25 0.002-0.452 0.205-0.452 0.456 0 0.001 0 0.002 0 0.003v-0 0.487c-0.069 0.015-0.139 0.033-0.211 0.055-0.652 0.199-1.14 0.766-1.272 1.479-0.121 0.649 0.084 1.276 0.535 1.634 0.239 0.19 0.538 0.365 0.947 0.55v2.79c-0.356-0.026-0.601-0.113-1.006-0.381zM14.566 5.877c-0.184-0.146-0.262-0.43-0.204-0.742 0.052-0.28 0.235-0.618 0.593-0.751v1.745c-0.149-0.080-0.276-0.163-0.395-0.256l0.006 0.005zM15.965 7.55c0.848 0.304 0.796 1.041 0.76 1.26-0.071 0.428-0.365 0.881-0.865 1.059v-2.358l0.105 0.039z">
			</path>
		</symbol>
		<symbol id="icon-fun" viewBox="0 0 33 32">
			<path d="M30.415 15.724l-1.272-1.286v-12.227l1.069-1.080c0.097-0.098 0.157-0.234 0.157-0.383s-0.060-0.284-0.157-0.383l0 0c-0.097-0.098-0.231-0.159-0.379-0.159s-0.283 0.061-0.379 0.159l-0 0-1.069 1.079h-12.105l-1.271-1.286c-0.097-0.098-0.231-0.159-0.379-0.159s-0.283 0.061-0.379 0.159l-0 0c-0.097 0.099-0.157 0.234-0.157 0.383s0.060 0.285 0.157 0.384l-0-0 1.218 1.23-3.777 16.168c-0.209 0.262-0.335 0.597-0.335 0.962 0 0.158 0.024 0.311 0.068 0.455l-0.003-0.011c0.162 0.54 0.601 0.948 1.148 1.064l0.010 0.002 2.408 0.494c0.465 0.098 0.847 0.393 1.061 0.792l0.004 0.008c0.221 0.415 0.246 0.903 0.071 1.339-0.234 0.582-0.794 0.985-1.448 0.985-0.114 0-0.226-0.012-0.333-0.036l0.010 0.002-9.023-1.931c-1.358-0.291-2.728 0.489-3.186 1.813-0.099 0.275-0.156 0.593-0.156 0.924 0 0.512 0.137 0.993 0.376 1.407l-0.007-0.014c0.397 0.692 1.066 1.19 1.858 1.35l0.018 0.003 0.038 0.007c0.724 0.144 1.32 0.601 1.65 1.22l0.006 0.013c0.179 0.33 0.284 0.723 0.284 1.141 0 0.338-0.069 0.659-0.193 0.952l0.006-0.016c-0.027 0.062-0.042 0.134-0.042 0.21 0 0.223 0.134 0.414 0.326 0.498l0.003 0.001c0.061 0.026 0.132 0.041 0.206 0.041 0.222 0 0.413-0.135 0.495-0.328l0.001-0.004c0.172-0.4 0.271-0.866 0.271-1.355 0-0.605-0.152-1.174-0.421-1.671l0.009 0.019c-0.488-0.915-1.35-1.576-2.377-1.782l-0.022-0.004-0.038-0.007c-0.496-0.1-0.905-0.405-1.144-0.82l-0.004-0.008c-0.142-0.245-0.226-0.539-0.226-0.853 0-0.203 0.035-0.397 0.099-0.578l-0.004 0.012c0.236-0.672 0.865-1.146 1.605-1.146 0.123 0 0.242 0.013 0.357 0.038l-0.011-0.002 9.023 1.931c0.164 0.036 0.352 0.057 0.545 0.057 1.103 0 2.047-0.68 2.436-1.644l0.006-0.018c0.123-0.296 0.194-0.64 0.194-1.001 0-0.461-0.116-0.894-0.321-1.272l0.007 0.014c-0.367-0.687-1.012-1.185-1.781-1.347l-0.017-0.003-2.408-0.494c-0.166-0.033-0.297-0.155-0.343-0.313l-0.001-0.003c-0.013-0.040-0.020-0.086-0.020-0.134 0-0.081 0.021-0.156 0.057-0.222l-0.001 0.002 15.954-3.803 1.218 1.23c0.097 0.098 0.231 0.159 0.379 0.159s0.283-0.061 0.379-0.159l0-0c0.097-0.099 0.157-0.234 0.157-0.383s-0.060-0.285-0.157-0.383l0 0zM27.311 2.528l-4.978 5.030-4.979-5.030h9.957zM16.359 3.057l5.214 5.268-8.435 8.522 3.222-13.79zM13.897 17.613l8.435-8.522 5.214 5.267-13.649 3.254zM28.070 13.354l-4.979-5.030 4.979-5.030v10.059z">
			</path>
		</symbol>
		<symbol id="icon-google" viewBox="0 0 32 32">
			<path fill="#2196f3" style="fill: var(--color3, #2196f3)" d="M30.567 13.038c0.137 0 0.247 0.116 0.247 0.258v2.704c0 1.013-0.091 2.002-0.263 2.962-1.33 7.456-7.598 13.092-15.111 13.038-8.43-0.062-15.173-7.2-15.156-16.036 0.018-8.82 6.844-15.964 15.264-15.964 4.124 0 7.867 1.716 10.613 4.501 0.047 0.048 0.076 0.114 0.076 0.187 0 0.070-0.027 0.134-0.071 0.181l0-0-3.65 3.826c-0.043 0.047-0.105 0.076-0.174 0.076-0.066 0-0.126-0.027-0.169-0.071l-0-0c-1.724-1.721-4.057-2.777-6.626-2.777-5.305 0-9.579 4.444-9.614 10.007-0.036 5.596 4.283 10.146 9.614 10.146 4.325 0 7.984-2.996 9.191-7.115h-8.946c-0.136-0.004-0.245-0.115-0.245-0.252 0-0.002 0-0.004 0-0.006v0-5.406c0-0.142 0.11-0.258 0.245-0.258h14.773z">
			</path>
			<path fill="#1e88e5" style="fill: var(--color4, #1e88e5)" d="M30.567 13.038h-1.844c0.137 0 0.247 0.116 0.247 0.258v2.704c0 1.013-0.091 2.002-0.263 2.962-1.269 7.115-7.031 12.569-14.082 13.010 0.268 0.018 0.54 0.027 0.814 0.028 7.513 0.053 13.78-5.582 15.111-13.038 0.172-0.96 0.261-1.95 0.261-2.962v-2.704c0-0.002 0-0.004 0-0.005 0-0.137-0.109-0.248-0.245-0.252h-0z">
			</path>
			<path fill="#f44336" style="fill: var(--color5, #f44336)" d="M6.816 11.78l-4.636-3.511c2.601-4.93 7.612-8.268 13.369-8.268 4.124 0 7.867 1.716 10.613 4.501 0.047 0.048 0.076 0.114 0.076 0.187 0 0.070-0.027 0.134-0.071 0.181l0-0-3.65 3.826c-0.043 0.047-0.105 0.076-0.174 0.076-0.066 0-0.126-0.027-0.169-0.071l-0-0c-1.691-1.71-4.035-2.77-6.626-2.777h-0.001c-3.872 0-7.209 2.4-8.731 5.856z">
			</path>
			<path fill="#e53935" style="fill: var(--color6, #e53935)" d="M5.476 10.766l1.34 1.013c1.388-3.156 4.292-5.428 7.732-5.801l0.076-0.009c-0.275-0.029-0.595-0.046-0.919-0.046h-0c-3.499 0-6.546 1.932-8.228 4.843zM24.32 4.501c0.047 0.048 0.075 0.114 0.075 0.186 0 0.071-0.027 0.135-0.072 0.182l0-0-2.962 3.106c0.284 0.226 0.555 0.468 0.812 0.725 0.096 0.096 0.249 0.094 0.341-0.005l3.653-3.824c0.044-0.047 0.071-0.111 0.071-0.181 0-0.073-0.029-0.139-0.076-0.187l0 0c-2.748-2.788-6.491-4.503-10.615-4.503-0.311 0-0.617 0.011-0.923 0.030 3.758 0.235 7.152 1.893 9.694 4.471z">
			</path>
			<path fill="#4caf50" style="fill: var(--color7, #4caf50)" d="M26.745 26.873c-2.788 3.154-6.773 5.127-11.198 5.127-5.975 0-11.15-3.6-13.655-8.844l4.732-3.399c1.42 3.705 4.88 6.32 8.924 6.32 2.535 0 4.843-1.031 6.56-2.713l4.636 3.509z">
			</path>
			<path fill="#43a047" style="fill: var(--color8, #43a047)" d="M6.624 19.756l-1.396 1.003c1.621 3.164 4.809 5.317 8.476 5.317 0.309 0 0.617-0.016 0.919-0.046-3.641-0.363-6.69-2.855-8-6.276zM15.547 32c4.427 0 8.411-1.973 11.2-5.127l-1.138-0.859c-2.617 3.413-6.542 5.68-10.981 5.956 0.306 0.020 0.612 0.030 0.919 0.030z">
			</path>
			<path fill="#ffc107" style="fill: var(--color9, #ffc107)" d="M5.934 16c0 1.328 0.245 2.596 0.69 3.756l-4.732 3.399c-1.015-2.083-1.609-4.532-1.609-7.119 0-0.013 0-0.026 0-0.038v0.002c0-2.804 0.688-5.44 1.897-7.732l4.636 3.511c-0.557 1.236-0.882 2.68-0.882 4.2 0 0.007 0 0.014 0 0.022v-0.001z">
			</path>
			<path fill="#ffb300" style="fill: var(--color10, #ffb300)" d="M5.228 20.759l1.396-1.003c-0.437-1.109-0.69-2.394-0.69-3.738 0-0.007 0-0.013 0-0.020v0.001c0-1.506 0.315-2.937 0.882-4.22l-1.339-1.013c-0.867 1.482-1.381 3.263-1.387 5.163v0.002c-0 0.028-0 0.060-0 0.093 0 1.728 0.421 3.359 1.166 4.794l-0.027-0.058z">
			</path>
		</symbol>
		<symbol id="icon-health" viewBox="0 0 29 32">
			<path d="M28.691 17.829l-0.509-8.305c-0.033-0.538-0.251-1.029-0.615-1.383-0.363-0.353-0.829-0.526-1.309-0.487-0.944 0.077-1.676 0.967-1.666 2.027l0.060 6.77-2.619 3.757c-0.418 0.6-1.111 0.84-1.741 0.659l2.849-4.144c0.5-0.727 0.417-1.781-0.189-2.399-0.323-0.33-0.742-0.493-1.179-0.458s-0.831 0.261-1.11 0.638l-4.305 5.806c-0.71 0.957-1.095 2.17-1.084 3.414l0.067 7.71c0.003 0.307 0.226 0.555 0.5 0.555l7.167 0.011c0.141 0 0.274-0.066 0.369-0.182s0.142-0.271 0.13-0.427l-0.293-3.774 4.758-7.082c0.521-0.776 0.776-1.737 0.717-2.706zM27.174 19.861l-4.873 7.254c-0.074 0.111-0.11 0.248-0.099 0.386l0.262 3.378-6.125-0.009-0.062-7.155c-0.009-0.979 0.294-1.934 0.853-2.687l4.304-5.806c0.094-0.131 0.24-0.22 0.408-0.235l0.002-0c0.012-0.001 0.026-0.002 0.040-0.002 0.156 0 0.296 0.065 0.395 0.17l0 0c0.223 0.228 0.254 0.617 0.070 0.885l-3.234 4.703c-0.065 0.096-0.104 0.214-0.104 0.341 0 0.033 0.003 0.065 0.007 0.096l-0-0.003c0.023 0.154 0.102 0.29 0.217 0.375 1.157 0.859 2.733 0.573 3.588-0.653l2.726-3.911c0.067-0.096 0.106-0.215 0.106-0.343 0-0.003-0-0.006-0-0.008v0l-0.062-6.967c-0.004-0.469 0.32-0.863 0.738-0.897 0.017-0.001 0.037-0.002 0.056-0.002 0.204 0 0.389 0.083 0.523 0.218l0 0c0.161 0.157 0.258 0.374 0.273 0.612l0.509 8.305c0.043 0.701-0.141 1.394-0.518 1.955zM8.357 14.503c-0.28-0.377-0.674-0.603-1.11-0.638s-0.855 0.129-1.179 0.459c-0.606 0.618-0.689 1.671-0.189 2.399l2.849 4.144c-0.629 0.181-1.323-0.060-1.741-0.659l-2.619-3.757 0.060-6.77c0.009-1.060-0.723-1.951-1.666-2.027-0.48-0.039-0.945 0.134-1.309 0.487s-0.582 0.845-0.615 1.383l-0.508 8.305c-0.059 0.969 0.195 1.93 0.717 2.706l4.758 7.082-0.293 3.774c-0.012 0.157 0.035 0.312 0.13 0.427s0.229 0.182 0.369 0.182h0.001l7.167-0.011c0.274 0 0.497-0.247 0.5-0.555l0.067-7.71c0.011-1.245-0.374-2.457-1.084-3.415l-4.304-5.806zM12.681 30.868l-6.125 0.010 0.262-3.378c0.001-0.015 0.002-0.032 0.002-0.050 0-0.125-0.038-0.241-0.102-0.338l0.001 0.002-4.873-7.254c-0.377-0.561-0.56-1.255-0.518-1.955l0.509-8.305c0.015-0.238 0.111-0.455 0.273-0.612 0.134-0.135 0.32-0.218 0.526-0.218 0.019 0 0.037 0.001 0.056 0.002l-0.002-0c0.418 0.034 0.742 0.429 0.738 0.898l-0.062 6.967c-0.001 0.127 0.037 0.25 0.106 0.351l2.726 3.911c0.855 1.226 2.43 1.513 3.587 0.653 0.116-0.090 0.196-0.222 0.217-0.372l0-0.003c0.004-0.028 0.007-0.060 0.007-0.093 0-0.127-0.039-0.246-0.106-0.344l0.001 0.002-3.233-4.703c-0.185-0.268-0.154-0.657 0.070-0.885 0.099-0.105 0.24-0.171 0.396-0.171 0.014 0 0.028 0.001 0.041 0.002l-0.002-0c0.17 0.015 0.316 0.104 0.409 0.234l0.001 0.002 4.304 5.806c0.559 0.754 0.862 1.708 0.853 2.687l-0.062 7.155zM24.319 6.31c0-1.686-0.586-3.27-1.65-4.462-1.064-1.191-2.479-1.848-3.984-1.848s-2.92 0.657-3.984 1.848l-0.19 0.214-0.19-0.214c-1.065-1.191-2.48-1.848-3.984-1.848-1.505 0-2.92 0.657-3.984 1.848-2.197 2.461-2.197 6.464 0 8.924l7.804 8.741c0.086 0.1 0.213 0.163 0.354 0.164h0c0.141-0.001 0.268-0.064 0.354-0.163l0.001-0.001 7.804-8.742c1.064-1.191 1.65-2.776 1.65-4.462zM14.51 18.323l-7.45-8.345c-1.806-2.023-1.806-5.314 0-7.337 0.875-0.981 2.038-1.52 3.276-1.52s2.401 0.539 3.275 1.52l0.545 0.609c0.086 0.1 0.213 0.163 0.354 0.165h0c0.141-0.002 0.268-0.065 0.354-0.164l0.001-0.001 0.544-0.61c0.875-0.98 2.039-1.52 3.276-1.52s2.401 0.54 3.276 1.52 1.357 2.283 1.357 3.669c0 1.386-0.482 2.69-1.357 3.67l-7.45 8.344z">
			</path>
		</symbol>
		<symbol id="icon-hobby" viewBox="0 0 32 32">
			<path d="M31.020 13.515h-1.907c-0.353 0-0.665 0.182-0.847 0.456-1.458-0.152-1.653-0.386-1.81-0.577-0.213-0.257-0.463-0.473-0.743-0.646l-0.013-0.007-4.383-2.662c-0.892-2.073-2.385-3.37-3.493-4.096-0.417-0.277-0.689-0.745-0.689-1.276 0-0.002 0-0.004 0-0.006v0c0-0.306 0.090-0.603 0.261-0.857l1.090-1.622c0.217-0.323 0.292-0.71 0.211-1.091-0.142-0.65-0.712-1.13-1.395-1.13h-5.178c-0 0-0.001 0-0.001 0-0.787 0-1.426 0.638-1.426 1.426 0 0.297 0.091 0.573 0.246 0.801l-0.003-0.005 1.090 1.622c0.171 0.254 0.261 0.551 0.261 0.857 0 0.52-0.257 0.999-0.689 1.282-1.642 1.077-5.31 4.25-3.923 10.451 0.774 3.459 1.371 5.897 1.731 7.071h-7.73c-0.638 0-1.195 0.453-1.325 1.077l-0.263 1.268c-0.083 0.401 0.017 0.813 0.274 1.13 0.249 0.306 0.626 0.499 1.048 0.499 0.001 0 0.002 0 0.003 0h26.594c0.001 0 0.002 0 0.003 0 0.422 0 0.798-0.194 1.046-0.497l0.002-0.002c0.189-0.23 0.304-0.528 0.304-0.853 0-0.098-0.011-0.194-0.030-0.287l0.002 0.009-0.264-1.269c-0.135-0.618-0.676-1.074-1.325-1.077h-7.729c0.107-0.351 0.237-0.818 0.387-1.396h0.509c0.001 0 0.001 0 0.002 0 1.569 0 3.082-0.242 4.503-0.692l-0.106 0.029 2.913-0.367c0.177 0.314 0.508 0.522 0.887 0.522h1.907c0.561-0 1.016-0.455 1.017-1.017v-6.054c0-0.56-0.456-1.017-1.017-1.017zM11.646 1.326c0.048-0.223 0.244-0.387 0.478-0.387 0 0 0.001 0 0.001 0h5.178c0 0 0.001 0 0.001 0 0.234 0 0.429 0.165 0.476 0.384l0.001 0.003c0.007 0.031 0.011 0.066 0.011 0.102 0 0.102-0.031 0.196-0.084 0.274l0.001-0.002-0.539 0.803h-4.912l-0.539-0.803c-0.052-0.076-0.083-0.17-0.083-0.271 0-0.036 0.004-0.072 0.012-0.106l-0.001 0.003zM12.117 6.768c0.674-0.446 1.113-1.202 1.113-2.059 0-0.003 0-0.005 0-0.008v0c0-0.447-0.12-0.88-0.347-1.262h3.663c-0.218 0.36-0.347 0.796-0.347 1.261 0 0 0 0 0 0.001v-0c0 0.837 0.416 1.609 1.113 2.066 0.287 0.189 0.603 0.419 0.926 0.695h-7.042c0.274-0.237 0.575-0.465 0.89-0.675l0.033-0.021zM28.154 24.775l0.264 1.268c0.006 0.026 0.009 0.056 0.009 0.087 0 0.099-0.035 0.191-0.094 0.262l0.001-0.001c-0.076 0.094-0.191 0.153-0.319 0.153-0.001 0-0.002 0-0.004 0h-26.594c-0.001 0-0.001 0-0.002 0-0.129 0-0.244-0.060-0.32-0.153l-0.001-0.001c-0.058-0.070-0.094-0.161-0.094-0.261 0-0.030 0.003-0.060 0.010-0.089l-0 0.003 0.264-1.269c0.040-0.191 0.211-0.33 0.407-0.33h26.066c0.196 0 0.367 0.139 0.407 0.331zM19.034 23.506h-8.64c-0.193-0.575-0.683-2.285-1.8-7.275-0.471-2.104-0.358-4.009 0.333-5.676h1.726c0.259 0 0.469-0.21 0.469-0.469s-0.21-0.469-0.469-0.469v0h-1.262c0.265-0.457 0.559-0.861 0.865-1.217h8.919c0.306 0.357 0.6 0.761 0.863 1.216h-7.507c-0.259 0-0.469 0.21-0.469 0.469s0.21 0.469 0.469 0.469v0h6.211c-0.070 0.167-0.111 0.361-0.111 0.565 0 0.128 0.016 0.252 0.046 0.371l-0.002-0.010c0.096 0.39 0.338 0.719 0.681 0.927l0.806 0.49h-5.21c-0.827 0-1.498 0.636-1.527 1.449-0.008 0.217 0.030 0.427 0.109 0.621h-0.481c-0.001 0-0.003 0-0.005 0-0.423 0-0.805 0.176-1.076 0.459l-0.001 0.001c-0.261 0.269-0.422 0.637-0.422 1.043 0 0.663 0.431 1.226 1.028 1.423l0.011 0.003c-0.091 0.188-0.144 0.409-0.144 0.642 0 0.83 0.672 1.503 1.502 1.505h0.71c-0.069 0.167-0.11 0.361-0.11 0.564 0 0.83 0.672 1.503 1.502 1.505h3.389c-0.197 0.746-0.324 1.163-0.402 1.396zM25.154 20.523c-0.030 0.004-0.058 0.010-0.084 0.018l0.003-0.001c-1.243 0.402-2.674 0.633-4.159 0.633-0 0-0.001 0-0.001 0h-4.866c-0.305-0.010-0.548-0.26-0.548-0.566s0.243-0.556 0.547-0.566l0.001-0h3.073c0.259 0 0.469-0.21 0.469-0.469s-0.21-0.469-0.469-0.469v0h-5.175c-0.299-0.017-0.536-0.264-0.536-0.566s0.236-0.549 0.534-0.566l0.002-0h5.175c0.259 0 0.469-0.21 0.469-0.469s-0.21-0.469-0.469-0.469v0h-6.043c-0.315 0-0.579-0.245-0.59-0.545-0-0.007-0-0.015-0-0.023 0-0.311 0.252-0.564 0.564-0.564 0.001 0 0.002 0 0.002 0h6.068c0.259 0 0.469-0.21 0.469-0.469s-0.21-0.469-0.469-0.469v0h-4.193c-0.001 0-0.001 0-0.002 0-0.159 0-0.303-0.066-0.405-0.173l-0-0c-0.098-0.101-0.159-0.24-0.159-0.392 0-0.008 0-0.016 0-0.023l-0 0.001c0.011-0.3 0.275-0.545 0.59-0.545h6.461c0.266 0 0.494-0.173 0.566-0.429 0.014-0.048 0.023-0.104 0.023-0.161 0-0.211-0.112-0.396-0.281-0.498l-0.003-0.001-1.876-1.139c-0.127-0.077-0.219-0.2-0.255-0.345l-0.001-0.004c-0.010-0.040-0.016-0.086-0.016-0.133 0-0.313 0.254-0.567 0.567-0.567 0.108 0 0.208 0.030 0.294 0.082l-0.003-0.001 4.786 2.907c0.197 0.12 0.372 0.271 0.52 0.45 0.383 0.463 0.875 0.741 2.362 0.903v5.255l-2.942 0.371zM31.099 20.586c0 0.044-0.035 0.079-0.079 0.079v0h-1.907c-0.043-0-0.079-0.035-0.079-0.079v-6.055c0-0.043 0.035-0.079 0.079-0.079h1.907c0.043 0 0.079 0.035 0.079 0.079v6.054zM22.477 30.488l-2.441-1.965c-0.080-0.065-0.182-0.104-0.294-0.104-0.259 0-0.469 0.21-0.469 0.469 0 0.147 0.068 0.279 0.174 0.365l0.001 0.001 2.249 1.808h-13.965l2.253-1.811c0.107-0.087 0.175-0.218 0.175-0.365 0-0.259-0.21-0.469-0.469-0.469-0.112 0-0.214 0.039-0.295 0.104l0.001-0.001-2.446 1.967c-0.195 0.155-0.32 0.393-0.32 0.66 0 0.102 0.018 0.2 0.052 0.291l-0.002-0.006c0.122 0.345 0.437 0.567 0.802 0.567h14.461c0.366 0 0.68-0.223 0.802-0.567 0.032-0.085 0.050-0.183 0.050-0.286 0-0.266-0.124-0.503-0.317-0.657l-0.002-0.001z">
			</path>
		</symbol>
		<symbol id="icon-home-depot" viewBox="0 0 32 32">
			<path d="M30.414 11.952h-0.636v-2.363c-0.002-1.398-1.135-2.532-2.533-2.533h-9.181c-0.849 0-1.6 0.419-2.059 1.060l-0.005 0.008c-0.464-0.649-1.216-1.067-2.065-1.067h-5.767c-0.259 0-0.469 0.21-0.469 0.469s0.21 0.469 0.469 0.469v0h5.767c0.881 0.001 1.595 0.715 1.596 1.596v4.688c-0.010-0.010-0.021-0.018-0.030-0.027-0.542-0.503-1.268-0.813-2.068-0.817h-7.809c-0.050-0.644-0.473-1.178-1.052-1.389l-0.011-0.004c-0.154-0.056-0.331-0.088-0.516-0.088-0.001 0-0.003 0-0.004 0h-0.881v-2.363c0.001-0.881 0.715-1.595 1.595-1.596h1.538c0.259 0 0.469-0.21 0.469-0.469s-0.21-0.469-0.469-0.469v0h-1.539c-1.398 0.002-2.532 1.135-2.533 2.533v2.363h-0.635c-0.875 0.001-1.584 0.71-1.586 1.586v4.894c0.002 1.823 1.48 3.301 3.303 3.303h0.236l-0.514 1.382c-0.323 0.871 0.343 1.827 1.27 1.827h0.754c0.422 0 0.826-0.201 1.081-0.537l2.021-2.672h15.699l2.021 2.671c0.254 0.337 0.658 0.538 1.081 0.538h0.754c0.929 0 1.594-0.957 1.27-1.827l-0.514-1.382h0.236c1.823-0.002 3.301-1.48 3.303-3.303v-4.894c-0.001-0.875-0.71-1.584-1.586-1.586h-0zM16.469 9.589c0.001-0.881 0.715-1.595 1.596-1.596h9.181c0.881 0.001 1.594 0.715 1.595 1.596v2.363h-0.882c-0.623 0-1.221 0.4-1.463 0.974-0.068 0.161-0.109 0.333-0.12 0.507h-7.807c-0.815 0.005-1.553 0.325-2.101 0.845l0.001-0.001v-4.688zM5.629 14.37h7.804c1.159 0.001 2.098 0.94 2.099 2.099v0.666h-9.904v-2.766zM5.383 23.841c-0.077 0.101-0.198 0.165-0.333 0.166h-0.754c-0.23-0.003-0.416-0.19-0.416-0.421 0-0.051 0.009-0.1 0.026-0.145l-0.001 0.003 0.635-1.709h2.437l-1.593 2.106zM27.706 24.006h-0.754c-0.136-0-0.256-0.065-0.332-0.165l-0.001-0.001-1.593-2.106h2.437l0.635 1.709c0.015 0.042 0.024 0.091 0.024 0.141 0 0.231-0.185 0.418-0.415 0.422h-0zM28.698 20.797h-25.395c-1.306-0.001-2.364-1.059-2.366-2.365v-4.894c0-0.358 0.291-0.649 0.649-0.649h2.456c0.358 0 0.649 0.291 0.649 0.649v4.067c0 0.259 0.21 0.469 0.469 0.469h17.217c0.259 0 0.469-0.21 0.469-0.469s-0.21-0.469-0.469-0.469v0h-5.907v-0.667c0.001-1.159 0.94-2.098 2.099-2.099h7.805v2.766h-2.121c-0.259 0-0.469 0.21-0.469 0.469s0.21 0.469 0.469 0.469v0h2.59c0.259 0 0.469-0.21 0.469-0.469v0-4.067c0-0.358 0.291-0.649 0.649-0.649h2.455c0.358 0 0.649 0.291 0.649 0.649v4.894c-0.001 1.306-1.059 2.364-2.365 2.366h-0z">
			</path>
		</symbol>
		<symbol id="icon-products" viewBox="0 0 32 32">
			<path d="M31.965 25.027l-0.121-0.728c-0.077-0.465-0.44-0.803-0.862-0.803-0.053 0-0.107 0.006-0.159 0.016l-2.452 0.505 1.11-0.832c0.291-0.218 0.438-0.607 0.374-0.994-0.019-0.114-0.053-0.215-0.101-0.309l0.003 0.006-0.336-0.666c-0.109-0.222-0.3-0.389-0.532-0.465l-0.006-0.002c-0.067-0.021-0.145-0.033-0.225-0.033-0.041 0-0.081 0.003-0.12 0.009l0.004-0.001c0.123-0.764 0.188-1.545 0.188-2.34 0-0.353-0.189-0.656-0.46-0.79 0.176-0.458 0.278-0.988 0.278-1.542 0-0.525-0.092-1.028-0.26-1.495l0.010 0.031c-0.029-0.082-0.071-0.153-0.125-0.214l0.001 0.001c-0.052-0.058-0.115-0.105-0.186-0.138l-0.003-0.001c-0.385-0.178-0.835-0.281-1.31-0.281-0.060 0-0.119 0.002-0.178 0.005l0.008-0c-0.064-1.446-1.132-2.6-2.436-2.6-0.172 0-0.34 0.021-0.501 0.058 0.034-0.212 0.053-0.457 0.053-0.706 0-0.564-0.098-1.105-0.279-1.607l0.010 0.033c-0.030-0.085-0.073-0.158-0.129-0.22l0.001 0.001c-0.052-0.059-0.116-0.107-0.189-0.141l-0.003-0.001c-0.414-0.191-0.898-0.303-1.408-0.303h-0c-0.762 0.002-1.465 0.248-2.038 0.664l0.010-0.007c-0.233-0.756-0.607-1.408-1.094-1.957l0.005 0.005c-0.135-0.157-0.334-0.256-0.555-0.258h-0c-0.222 0.002-0.42 0.101-0.555 0.257l-0.001 0.001-2.24 2.514c-0.414-0.414-0.96-0.661-1.552-0.661-0.135 0-0.269 0.013-0.403 0.039-0.483 0.094-0.926 0.358-1.267 0.746-0.294-0.164-0.645-0.26-1.019-0.26-0.141 0-0.279 0.014-0.412 0.040l0.013-0.002c-0.12 0.024-0.223 0.053-0.323 0.089l0.015-0.005v-1.937c0-1.334-0.958-2.421-2.142-2.444v-1.099c0.363-0.071 0.639-0.424 0.639-0.85v-2.49c0-0.476-0.346-0.863-0.771-0.863h-3.761c-0.425 0-0.771 0.387-0.771 0.863v2.49c0 0.426 0.277 0.779 0.639 0.85v1.098c-1.185 0.023-2.142 1.11-2.142 2.445v15.121c-0.926 0.941-1.498 2.234-1.498 3.66 0 0.007 0 0.013 0 0.020v-0.001c0 2.835 2.222 5.142 4.953 5.142l18.515-0.006c0.632 0 1.226-0.312 1.63-0.853 0.394-0.528 0.561-1.213 0.464-1.889l3.699 0.744c0.046 0.009 0.099 0.015 0.154 0.015 0.195 0 0.374-0.069 0.514-0.184l-0.001 0.001c0.192-0.153 0.322-0.392 0.357-0.653l0.1-0.753c0.006-0.044 0.010-0.095 0.010-0.146 0-0.062-0.005-0.123-0.015-0.183l0.001 0.006c-0.064-0.385-0.326-0.691-0.667-0.778l-1.304-0.335 2.45-0.504c0.242-0.054 0.442-0.203 0.563-0.405l0.002-0.004c0.133-0.216 0.182-0.477 0.14-0.734zM26.677 14.997c0.278 0 0.552 0.049 0.816 0.147 0.083 0.273 0.131 0.587 0.131 0.912 0 0.537-0.13 1.043-0.36 1.488l0.009-0.018h-1.246l0.397-0.446c0.181-0.202 0.18-0.531-0.001-0.733-0.079-0.093-0.196-0.151-0.327-0.151s-0.248 0.059-0.327 0.151l-0 0.001-0.211 0.236c-0.1-0.369-0.272-0.689-0.5-0.96l0.003 0.004c0.459-0.408 1.023-0.63 1.617-0.63zM24.068 12.401c0.835 0 1.515 0.764 1.515 1.702l-0.001 0.052c-0.52 0.196-0.962 0.496-1.319 0.876l-0.002 0.002c-0.048-0.022-0.109-0.045-0.172-0.066l-0.014-0.004c-0.135-0.819-0.628-1.475-1.279-1.781 0.27-0.469 0.739-0.78 1.272-0.78zM21.623 9.515c0.314 0 0.623 0.057 0.921 0.17 0.096 0.309 0.151 0.665 0.151 1.034 0 0.49-0.098 0.957-0.275 1.383l0.009-0.024c-0.25 0.257-0.451 0.563-0.586 0.902l-0.007 0.019c-0.083 0.006-0.165 0.016-0.247 0.031-0.383 0.080-0.717 0.257-0.984 0.504l0.001-0.001c-0.102-0.207-0.219-0.386-0.353-0.549l0.004 0.005 1.061-1.19c0.18-0.203 0.18-0.531-0.001-0.733-0.079-0.093-0.196-0.152-0.327-0.152s-0.248 0.059-0.327 0.152l-0.001 0.001-1.159 1.301c-0.205-0.112-0.444-0.194-0.697-0.234l-0.013-0.002c0.111-0.646 0.392-1.213 0.794-1.67l-0.003 0.004c0.545-0.612 1.269-0.949 2.040-0.949zM18.078 17.526h-0.401c-0.067-0.193-0.235-0.33-0.431-0.33s-0.363 0.136-0.43 0.329h-0.472c0.043-0.078 0.068-0.171 0.068-0.27 0-0.141-0.051-0.269-0.136-0.368l0.001 0.001c-0.079-0.093-0.196-0.152-0.327-0.152s-0.248 0.059-0.327 0.152l-0.001 0.001-0.436 0.49c-0.037 0.042-0.068 0.091-0.090 0.144l-0.001 0.003h-0.941c-0.352-0.6-0.57-1.318-0.593-2.084l-0-0.007h7.339c-0.023 0.773-0.241 1.49-0.604 2.112l0.011-0.021h-0.98c-0.023-0.057-0.054-0.105-0.091-0.148l0 0.001-0.436-0.49c-0.079-0.093-0.196-0.152-0.327-0.152s-0.248 0.059-0.326 0.151l-0 0.001c-0.155 0.173-0.177 0.438-0.067 0.637zM17.003 14.399c0.174-0.724 0.764-1.258 1.462-1.258s1.288 0.534 1.462 1.258h-2.925zM17.948 8.028c0.418 0.508 0.723 1.125 0.868 1.802l0.005 0.028c-0.225 0.273-0.421 0.583-0.576 0.917l-0.011 0.027c-0.067-0.048-0.151-0.076-0.241-0.077h-0.616c-0.255 0-0.463 0.232-0.463 0.518s0.207 0.518 0.463 0.518h0.541c-0.026 0.114-0.051 0.261-0.069 0.411l-0.002 0.023c-0.184 0.054-0.359 0.131-0.523 0.229-0.309-0.596-0.819-1.040-1.424-1.218l-0.001-0.004c-0.039-0.249-0.104-0.472-0.193-0.682l0.007 0.019 2.234-2.509zM9.586 12.703c-0.024-0.072-0.046-0.16-0.060-0.25l-0.001-0.010c-0.133-0.857 0.383-1.675 1.15-1.825 0.081-0.016 0.163-0.024 0.244-0.024 0.323 0.002 0.617 0.121 0.844 0.316l-0.002-0.001c0.102 0.085 0.231 0.12 0.356 0.095 0.132-0.029 0.241-0.111 0.305-0.222l0.001-0.002c0.217-0.367 0.55-0.61 0.935-0.685 0.081-0.016 0.163-0.024 0.245-0.024 0.685 0 1.268 0.549 1.385 1.306 0.013 0.087 0.020 0.177 0.020 0.269 0.001 0.268 0.184 0.492 0.422 0.515 0.518 0.051 0.958 0.415 1.162 0.929-0.273 0.366-0.462 0.81-0.533 1.292l-0.002 0.016h-2.638c-0.328 0-0.61 0.227-0.727 0.548-0.541-0.423-1.231-0.679-1.981-0.682h-0.001c-0.449 0-0.889 0.095-1.308 0.282-0.074 0.034-0.137 0.081-0.188 0.139l-0.001 0.001c-0.054 0.062-0.097 0.134-0.125 0.212-0.097 0.266-0.173 0.577-0.213 0.899l-0.002 0.021c-0.167-0.214-0.284-0.475-0.327-0.76l-0.001-0.009c-0.109-0.702 0.22-1.402 0.799-1.702 0.218-0.112 0.323-0.392 0.241-0.645zM10.965 17.384l0.126 0.141h-1.112c-0.136-0.345-0.215-0.745-0.215-1.164 0-0.325 0.048-0.64 0.136-0.936l-0.006 0.023c0.242-0.093 0.522-0.147 0.815-0.147h0c0.697 0 1.353 0.305 1.846 0.859 0.066 0.074 0.127 0.151 0.184 0.231 0.079 0.397 0.199 0.777 0.354 1.135h-0.697l-0.778-0.874c-0.079-0.093-0.196-0.152-0.328-0.152s-0.248 0.059-0.327 0.151l-0.001 0.001c-0.181 0.202-0.181 0.53-0.001 0.733zM8.995 17.525h-1.649c0.073-0.502 0.342-0.93 0.717-1.182 0.216 0.326 0.499 0.59 0.832 0.777l0.012 0.006c0.024 0.135 0.052 0.268 0.088 0.399zM4.327 1.036h3.454v2.144h-3.454v-2.145zM7.141 4.216v1.083h-2.175v-1.083h2.175zM2.825 9.847h3.003c0.255 0 0.463-0.232 0.463-0.519s-0.207-0.518-0.463-0.518h-3.003v-1.065c0-0.778 0.563-1.409 1.254-1.409h3.949c0.692 0 1.255 0.632 1.255 1.409v1.065h-0.864c-0.255 0-0.463 0.232-0.463 0.518s0.208 0.518 0.463 0.518h0.864v0.46c-0.53 0.582-0.805 1.435-0.669 2.313l0.001 0.006c-0.742 0.57-1.137 1.584-0.98 2.602 0.010 0.059 0.021 0.118 0.034 0.176-0.239 0.15-0.442 0.33-0.613 0.538l-0.003 0.004h-4.226v-6.098zM2.825 16.981h3.688c-0.049 0.175-0.084 0.357-0.101 0.545h-0.077c-0.426 0-0.772 0.387-0.772 0.865 0 0.822 0.069 1.63 0.2 2.42-0.121-0.011-0.262-0.018-0.404-0.018-0.001 0-0.002 0-0.004 0h0c-0.56 0-1.093 0.099-1.501 0.28-0.625 0.276-0.797 0.668-0.835 0.94-0.089 0.050-0.153 0.088-0.216 0.128l0.021-0.012v-5.146zM8.682 23.346c0.167 0.149 0.268 0.276 0.328 0.368h-0.017c-0.262 0-0.733-0.118-1.267-0.45-0.2-0.124-0.374-0.257-0.533-0.405l0.002 0.002c-0.077-0.076-0.182-0.123-0.299-0.123s-0.222 0.047-0.299 0.123l0-0c-0.148 0.14-0.331 0.28-0.531 0.404-0.535 0.331-1.005 0.45-1.267 0.45h-0.017c0.095-0.14 0.203-0.26 0.324-0.366l0.002-0.002c0.108-0.102 0.175-0.245 0.175-0.405 0-0.051-0.007-0.1-0.020-0.147l0.001 0.004c-0.052-0.201-0.205-0.348-0.391-0.372-0.451-0.059-0.737-0.188-0.87-0.282 0.167-0.117 0.591-0.316 1.353-0.316 0.63 0 1.091 0.149 1.313 0.288 0.141 0.088 0.313 0.088 0.453 0 0.221-0.139 0.683-0.288 1.314-0.288 0.762 0 1.185 0.199 1.353 0.316-0.134 0.094-0.419 0.222-0.871 0.282-0.185 0.024-0.339 0.171-0.391 0.372-0.012 0.043-0.019 0.092-0.019 0.143 0 0.159 0.067 0.302 0.174 0.404l0 0zM7.757 29.652l0.016 0.096c0.055 0.333 0.171 0.638 0.333 0.904h-2.752c-2.221 0-4.028-1.841-4.028-4.106 0-0.003 0-0.007 0-0.011 0-1.528 0.832-2.862 2.067-3.574l0.020-0.011c0.143 0.12 0.321 0.222 0.532 0.305-0.084 0.16-0.142 0.332-0.156 0.512-0.018 0.239 0.047 0.466 0.184 0.639 0.181 0.229 0.459 0.345 0.825 0.345 0.488 0 1.13-0.217 1.715-0.58 0.135-0.083 0.262-0.171 0.382-0.264 0.119 0.092 0.247 0.181 0.382 0.264 0.585 0.363 1.226 0.58 1.715 0.58 0.367 0 0.645-0.116 0.825-0.345 0.137-0.173 0.202-0.4 0.184-0.639-0.018-0.19-0.073-0.364-0.159-0.519l0.003 0.007c0.211-0.083 0.389-0.186 0.532-0.305 0.993 0.57 1.715 1.515 1.977 2.638l0.005 0.028-3.272 1.392c-0.958 0.407-1.517 1.52-1.332 2.645zM24.789 30.164c-0.228 0.305-0.564 0.481-0.921 0.481h-0.486l-0.303-1.834c-0.047-0.281-0.288-0.467-0.539-0.415-0.252 0.053-0.418 0.323-0.371 0.604l0.272 1.646-1.592 0.001-0.205-1.241c-0.047-0.281-0.288-0.467-0.539-0.415s-0.418 0.323-0.371 0.604l0.174 1.052-3.702 0.002-0.278-1.684c-0.047-0.282-0.288-0.468-0.539-0.415s-0.417 0.322-0.371 0.604l0.247 1.497-5.406 0.002c-0.578 0-1.073-0.459-1.178-1.093l-0.016-0.096c-0.104-0.633 0.211-1.258 0.751-1.488l1.818-0.774 0.136 0.819c0.041 0.25 0.236 0.424 0.454 0.424 0.028 0 0.056-0.003 0.085-0.008 0.251-0.052 0.417-0.323 0.371-0.604l-0.166-1.004 2.699-1.148c0.239-0.102 0.359-0.401 0.268-0.669s-0.358-0.402-0.597-0.3l-1.256 0.534c-0.352-1.397-1.258-2.564-2.457-3.233-0.038-0.271-0.211-0.664-0.835-0.94-0.409-0.181-0.941-0.28-1.501-0.28-0.385 0-0.753 0.048-1.078 0.135v-0.313c0-0.286-0.207-0.518-0.462-0.518-0.11 0.001-0.211 0.043-0.287 0.112l0-0c-0.073-0.541-0.113-1.089-0.12-1.646h15.067c0.255 0 0.463-0.232 0.463-0.518s-0.207-0.518-0.463-0.518h-0.189c0.291-0.658 0.461-1.426 0.461-2.234 0-0.004 0-0.009 0-0.013v0.001c0-0.458-0.312-0.834-0.71-0.876 0.164-0.176 0.379-0.302 0.623-0.352l0.008-0.001c0.071-0.013 0.143-0.021 0.213-0.021 0.597 0 1.105 0.478 1.207 1.138 0.011 0.076 0.017 0.155 0.017 0.234 0 0.268 0.184 0.492 0.422 0.515 0.553 0.054 1.005 0.52 1.1 1.132 0.025 0.163 0.021 0.323-0.004 0.477h-0.496c-0.255 0-0.463 0.232-0.463 0.518s0.208 0.518 0.463 0.518h3.595c-0.011 0.991-0.129 1.948-0.342 2.869l0.017-0.090-2.507 1.658c-0.153-0.598-0.51-1.105-1.001-1.413-0.293-0.191-0.652-0.304-1.037-0.304-0.274 0-0.534 0.057-0.77 0.16l0.012-0.005-5.163 2.197c-0.239 0.102-0.359 0.401-0.268 0.668 0.090 0.268 0.358 0.403 0.597 0.301l0.68-0.29 0.211 1.277c0.042 0.25 0.236 0.424 0.455 0.424 0.028 0 0.056-0.003 0.084-0.008 0.252-0.052 0.418-0.323 0.371-0.604l-0.241-1.462 3.604-1.533c0.126-0.056 0.274-0.088 0.428-0.088 0.218 0 0.42 0.064 0.59 0.174l-0.004-0.003c0.311 0.195 0.526 0.531 0.591 0.921l0.936 5.659c0.013 0.073 0.021 0.158 0.021 0.244 0 0.32-0.104 0.615-0.28 0.854l0.003-0.004zM26.44 26.109c-0.216 0.045-0.374 0.253-0.379 0.499s0.145 0.461 0.359 0.517l3.444 0.884-0.086 0.647-3.993-0.804-0.624-3.774 3.477-2.3 0.29 0.575-2.933 2.196c-0.182 0.137-0.254 0.399-0.171 0.626s0.296 0.359 0.512 0.314l4.607-0.948 0.103 0.62-4.606 0.948z">
			</path>
		</symbol>
		<symbol id="icon-salary" viewBox="0 0 31 32">
			<path fill="#ff751d" style="fill: var(--color11, #ff751d)" d="M14.882 12.887c-0.105-0.038-0.212-0.077-0.32-0.117v-1.976c0.235 0.096 0.437 0.214 0.621 0.355l-0.006-0.005c0.257 0.214 0.636 0.177 0.847-0.083 0.087-0.105 0.139-0.242 0.139-0.39 0-0.189-0.085-0.358-0.218-0.471l-0.001-0.001c-0.389-0.31-0.852-0.547-1.356-0.681l-0.026-0.006v-0.3c0-0.338-0.27-0.612-0.604-0.612s-0.603 0.274-0.603 0.612v0.271c-0.082 0.017-0.147 0.035-0.21 0.054l0.017-0.005c-0.694 0.212-1.194 0.806-1.34 1.587-0.141 0.76 0.103 1.517 0.622 1.93 0.236 0.188 0.525 0.361 0.91 0.54v2.589c-0.273-0.039-0.478-0.132-0.804-0.349-0.093-0.063-0.208-0.1-0.331-0.1-0.211 0-0.396 0.109-0.503 0.274l-0.001 0.002c-0.182 0.284-0.104 0.663 0.175 0.848 0.573 0.381 0.977 0.514 1.465 0.557v0.381c0 0.338 0.27 0.612 0.604 0.612s0.603-0.274 0.603-0.612v-0.439c1.004-0.258 1.647-1.128 1.789-1.986 0.183-1.102-0.408-2.099-1.469-2.481zM13.355 12.205c-0.064-0.041-0.119-0.081-0.171-0.122l0.004 0.003c-0.163-0.13-0.237-0.434-0.18-0.739 0.019-0.103 0.096-0.407 0.346-0.568v1.426zM15.161 15.165c-0.055 0.333-0.259 0.682-0.599 0.88v-1.971c0.655 0.279 0.639 0.851 0.599 1.091z">
			</path>
			<path fill="#ff751d" style="fill: var(--color11, #ff751d)" d="M28.574 13.283l-3.832-2.568v-9.901c0-0.338-0.27-0.612-0.604-0.612h-14.483c-0.333 0-0.604 0.274-0.604 0.612v2.327h-2.293c-0.333 0-0.604 0.274-0.604 0.612v6.962l-3.832 2.568c-0.164 0.112-0.271 0.298-0.271 0.51 0 0 0 0.001 0 0.001v-0 17.144c0 0.338 0.27 0.612 0.604 0.612h10.077c0.333 0 0.604-0.274 0.604-0.612s-0.27-0.612-0.604-0.612h-8.621l8.798-8.927 2.206 1.479c0.093 0.063 0.209 0.101 0.333 0.101s0.239-0.038 0.335-0.103l-0.002 0.001 2.206-1.479 8.798 8.927h-8.621c-0.333 0-0.604 0.274-0.604 0.612s0.27 0.612 0.604 0.612h10.078c0.333 0 0.603-0.274 0.603-0.612v-17.144c0-0.206-0.102-0.397-0.27-0.511zM27.146 13.794l-2.406 1.611v-3.222l2.406 1.611zM10.258 1.426h13.276v14.788l-1.689 1.132v-13.593c0-0.338-0.27-0.612-0.604-0.612h-10.983v-1.714zM6.156 12.182v3.222l-2.405-1.611 2.406-1.611zM3.259 29.459v-14.527l8.623 5.778-8.623 8.75zM15.448 21.632l-8.086-5.418v-11.85h13.276v13.79l-5.19 3.478zM27.638 14.932v14.527l-8.623-8.749 8.623-5.778z">
			</path>
			<path fill="#ff751d" style="fill: var(--color11, #ff751d)" d="M15.448 30.325c-0.159 0-0.314 0.066-0.426 0.179s-0.177 0.272-0.177 0.433c0 0.161 0.064 0.319 0.177 0.433s0.268 0.179 0.426 0.179 0.314-0.065 0.426-0.179c0.113-0.114 0.177-0.271 0.177-0.433s-0.064-0.319-0.177-0.433c-0.109-0.11-0.26-0.178-0.426-0.179h-0z">
			</path>
		</symbol>
		<symbol id="icon-stuff" viewBox="0 0 32 32">
			<path d="M31.996 22.334c-0.956-7.667-8.11-8.803-10.129-8.971v-6.963c0-0.048-0.067-4.8-5.867-4.8s-5.867 4.752-5.867 4.8v6.963c-2.019 0.167-9.17 1.303-10.129 8.97 0 0.011-0.004 0.053-0.004 0.066v2.133c0 0.295 0.239 0.534 0.533 0.534h2.667v1.066h-1.6c-0.294 0-0.533 0.239-0.533 0.533 0 0 0 0 0 0.001v-0c0 1.291 0.78 3.733 3.733 3.733s3.733-2.442 3.733-3.734c0-0.294-0.239-0.533-0.533-0.533v0h-1.6v-1.066h8v1.066h-1.6c-0.294 0-0.533 0.239-0.533 0.533 0 0 0 0 0 0.001v-0c0 1.291 0.78 3.733 3.733 3.733s3.733-2.442 3.733-3.734c0-0.294-0.239-0.533-0.533-0.533v0h-1.6v-1.066h8v1.066h-1.6c-0.294 0-0.533 0.239-0.533 0.533 0 0 0 0 0 0.001v-0c0 1.291 0.78 3.733 3.733 3.733s3.733-2.442 3.733-3.734c0-0.294-0.239-0.533-0.533-0.533v0h-1.6v-1.066h2.667c0.294 0 0.533-0.239 0.533-0.533 0-0 0-0 0-0.001v0-2.133c0-0.013 0-0.054-0.004-0.066zM11.2 6.4c0-0.153 0.053-3.734 4.8-3.734 4.714 0 4.8 3.583 4.8 3.734v6.933h-1.067v-3.2h-1.066v3.2h-7.467v-6.933zM6.187 15.434c1.315-0.593 2.846-0.967 4.455-1.033l0.025-0.001h10.666c1.634 0.067 3.165 0.441 4.558 1.066l-0.078-0.031c2.656 1.12 4.581 3.508 5.027 6.385l0.006 0.047h-29.692c0.452-2.924 2.377-5.312 4.979-6.412l0.054-0.020zM4.8 29.333c-0.055 0.004-0.119 0.007-0.184 0.007-1.243 0-2.27-0.927-2.426-2.128l-0.001-0.012h5.219c-0.164 1.213-1.193 2.139-2.438 2.139-0.060 0-0.119-0.002-0.177-0.006l0.008 0zM5.333 26.133h-1.066v-1.066h1.066v1.066zM16 29.333c-0.055 0.004-0.119 0.007-0.184 0.007-1.243 0-2.27-0.927-2.426-2.128l-0.001-0.012h5.219c-0.164 1.213-1.193 2.139-2.438 2.139-0.060 0-0.119-0.002-0.177-0.006l0.008 0zM16.533 26.133h-1.066v-1.066h1.066v1.066zM27.2 29.333c-0.056 0.005-0.121 0.007-0.187 0.007-1.243 0-2.27-0.927-2.425-2.128l-0.001-0.012h5.221c-0.164 1.213-1.193 2.139-2.438 2.139-0.060 0-0.119-0.002-0.177-0.006l0.008 0zM27.733 26.133h-1.066v-1.066h1.066v1.066zM30.933 24h-29.866v-1.067h29.866v1.067z">
			</path>
			<path d="M16 15.467c-1.473 0-2.667 1.194-2.667 2.667s1.194 2.667 2.667 2.667v0c1.473 0 2.667-1.194 2.667-2.667s-1.194-2.667-2.667-2.667v0zM16 19.734c-0.884 0-1.6-0.716-1.6-1.6s0.716-1.6 1.6-1.6v0c0.884 0 1.6 0.716 1.6 1.6s-0.716 1.6-1.6 1.6v0z">
			</path>
			<path d="M17.067 18.133c0 0.589-0.478 1.067-1.067 1.067s-1.067-0.478-1.067-1.067v0c0-0.589 0.478-1.067 1.067-1.067s1.067 0.478 1.067 1.067v0zM18.667 8h1.066v1.067h-1.066v-1.067zM18.667 6.4v0.533h1.066v-0.533c0-0.273-0.107-2.667-3.733-2.667v1.067c2.474 0 2.667 1.226 2.667 1.6zM11.2 17.6h1.067v1.066h-1.067v-1.066zM9.067 17.6h1.066v1.066h-1.066v-1.066zM19.733 17.6h1.067v1.066h-1.067v-1.066zM21.867 17.6h1.066v1.066h-1.066v-1.066z">
			</path>
		</symbol>
		<symbol id="icon-transport" viewBox="0 0 29 32">
			<path d="M27.234 12.821l-0.614-0.739-2.157-6.598c-0.367-1.114-1.307-1.853-2.355-1.86h-15.402c-1.048 0-1.988 0.745-2.355 1.86l-2.126 6.516-0.886 0.93c-0.771 0.746-1.217 1.84-1.217 2.989v9.613c0.006 1.573 1.133 2.845 2.518 2.845h1.59c1.386 0 2.512-1.272 2.518-2.845v-1.394h14.938v1.394c0.006 1.573 1.133 2.845 2.518 2.845h1.59c1.386 0 2.512-1.272 2.518-2.845v-9.866c-0.006-1.074-0.392-2.099-1.078-2.845zM5.484 5.949c0.193-0.581 0.681-0.957 1.223-0.957h15.407c0.542 0 1.030 0.383 1.223 0.957l1.879 5.744h-1.403c-0.331-2.565-2.433-4.335-4.692-3.953-1.801 0.301-3.217 1.908-3.482 3.953h-12.035l1.88-5.744zM22.585 11.693h-5.729c0.331-1.799 1.886-2.947 3.47-2.571 1.133 0.274 2.018 1.279 2.259 2.571zM5.543 25.531c-0.006 0.821-0.59 1.477-1.313 1.477h-1.589c-0.723 0-1.307-0.657-1.313-1.477v-1.791c0.361 0.267 0.837 0.397 1.313 0.397h2.902v1.395zM27.107 25.531c-0.006 0.821-0.59 1.477-1.313 1.477h-1.589c-0.723 0-1.307-0.663-1.314-1.477v-1.394h2.903c0.476 0 0.952-0.13 1.313-0.397v1.791zM25.794 22.769h-23.154c-0.717 0.007-1.307-0.643-1.313-1.463v-5.389c0-0.752 0.295-1.47 0.801-1.955l0.024-0.027 0.819-0.875h22.811l0.578 0.704c0.006 0.014 0.024 0.021 0.030 0.034 0.451 0.486 0.711 1.162 0.711 1.867v5.641h0.006c-0.006 0.814-0.596 1.47-1.313 1.463z">
			</path>
			<path d="M8.074 15.795h-4.518c-0.331 0-0.602 0.308-0.602 0.684v3.555c0 0.376 0.271 0.684 0.602 0.684h4.518c0.331 0 0.602-0.308 0.602-0.684v-3.555c0-0.376-0.271-0.684-0.602-0.684zM7.471 19.35h-3.313v-2.188h3.313v2.189zM24.88 15.795h-4.518c-0.331 0-0.602 0.308-0.602 0.684v3.555c0 0.376 0.271 0.684 0.602 0.684h4.518c0.331 0 0.602-0.308 0.602-0.684v-3.555c0-0.376-0.271-0.684-0.602-0.684zM24.277 19.35h-3.313v-2.188h3.313v2.189zM17.127 18.666h-5.819c-0.331 0-0.603 0.308-0.603 0.684s0.271 0.684 0.603 0.684h5.819c0.331 0 0.602-0.308 0.602-0.684s-0.271-0.684-0.603-0.684zM17.127 16.547h-5.819c-0.331 0-0.603 0.307-0.603 0.684s0.271 0.683 0.603 0.683h5.819c0.331 0 0.602-0.307 0.602-0.683s-0.271-0.684-0.603-0.684z">
			</path>
		</symbol>
		<symbol id="icon-trashcan" viewBox="0 0 32 32">
			<path fill="#52555f" style="fill: var(--color2, #52555f)" d="M28.992 7.152l-0.706-2.117c-0.268-0.791-1.004-1.349-1.869-1.349-0.001 0-0.002 0-0.003 0h-5.938v-1.932c-0.001-0.968-0.785-1.752-1.753-1.753h-5.437c-0.968 0.001-1.752 0.785-1.753 1.753v1.933h-5.938c-0.85 0-1.602 0.542-1.872 1.349l-0.706 2.117c-0.051 0.149-0.080 0.32-0.080 0.498 0 0.876 0.708 1.586 1.584 1.589h0.738l1.627 20.101c0.121 1.492 1.387 2.66 2.88 2.66h12.805c1.493 0 2.761-1.168 2.88-2.66l1.627-20.101h0.409c0.875-0.003 1.584-0.713 1.584-1.589 0-0.178-0.029-0.349-0.083-0.509l0.003 0.011zM13.41 1.876h5.191v1.81h-5.191v-1.81zM23.586 29.189c-0.046 0.524-0.482 0.932-1.013 0.935h-12.804c-0.532-0.003-0.967-0.411-1.013-0.931l-0-0.004-1.614-19.95h18.057l-1.612 19.95zM4.924 7.365l0.58-1.737c0.013-0.039 0.049-0.067 0.092-0.068h20.818c0.043 0 0.080 0.027 0.092 0.068l0.58 1.737h-22.162z">
			</path>
			<path fill="#52555f" style="fill: var(--color2, #52555f)" d="M20.596 29.122h0.048c0 0 0.001 0 0.001 0 0.501 0 0.909-0.393 0.936-0.887l0-0.002 0.88-16.898c-0.001-0.518-0.421-0.937-0.939-0.937-0.483 0-0.881 0.365-0.933 0.835l-0 0.004-0.882 16.9c-0.001 0.015-0.001 0.032-0.001 0.049 0 0.501 0.393 0.91 0.888 0.936l0.002 0zM10.473 28.236c0.028 0.495 0.436 0.887 0.936 0.887 0.518 0 0.937-0.42 0.937-0.937 0-0.018-0.001-0.036-0.001-0.053l0 0.002-0.923-16.9c-0.028-0.495-0.436-0.887-0.936-0.887-0.518 0-0.937 0.42-0.937 0.937 0 0.018 0.001 0.036 0.001 0.053l-0-0.002 0.923 16.9zM16.016 29.124c0.517 0 0.937-0.419 0.937-0.937v0-16.9c0-0.517-0.419-0.937-0.937-0.937s-0.937 0.419-0.937 0.937v0 16.9c0 0.517 0.42 0.937 0.937 0.937z">
			</path>
		</symbol>
		<symbol id="icon-utilities" viewBox="0 0 32 32">
			<path d="M30.679 0h-29.358c-0.451 0-0.819 0.369-0.819 0.819s0.369 0.819 0.819 0.819h1.768v29.521c0 0.301 0.164 0.581 0.43 0.724s0.587 0.13 0.84-0.041l3.557-2.369 3.57 2.376c0.127 0.087 0.285 0.138 0.454 0.138s0.327-0.052 0.457-0.14l-0.003 0.002 3.557-2.369 3.571 2.376c0.127 0.086 0.285 0.138 0.454 0.138s0.326-0.052 0.457-0.14l-0.003 0.002 3.557-2.369 3.571 2.376c0.137 0.089 0.294 0.137 0.45 0.137 0.13 0 0.266-0.034 0.389-0.095 0.266-0.143 0.43-0.423 0.43-0.724l-0.014-29.522h1.864c0.451 0 0.819-0.369 0.819-0.819s-0.369-0.84-0.819-0.84zM27.197 29.631l-2.751-1.83c-0.128-0.087-0.285-0.138-0.454-0.138s-0.327 0.052-0.457 0.14l0.003-0.002-3.557 2.376-3.571-2.376c-0.127-0.086-0.285-0.138-0.454-0.138s-0.326 0.052-0.457 0.14l0.003-0.002-3.557 2.369-3.571-2.369c-0.127-0.087-0.285-0.138-0.454-0.138s-0.327 0.052-0.457 0.14l0.003-0.002-2.738 1.823v-27.992h22.462l0.007 27.999z">
			</path>
			<path d="M8.497 13.081h8.582c0.45 0 0.819-0.369 0.819-0.819s-0.369-0.819-0.819-0.819h-8.582c-0.45 0-0.819 0.369-0.819 0.819 0 0.001 0 0.001 0 0.002 0 0.451 0.366 0.817 0.817 0.817 0.001 0 0.002 0 0.002 0h-0zM8.497 15.929h6.431c0.451 0 0.819-0.369 0.819-0.819s-0.369-0.819-0.819-0.819h-6.431c-0.45 0-0.819 0.369-0.819 0.819 0 0.001 0 0.001 0 0.002 0 0.451 0.366 0.817 0.817 0.817 0.001 0 0.002 0 0.002 0h-0zM21.366 13.081h2.144c0.45 0 0.819-0.369 0.819-0.819s-0.369-0.819-0.819-0.819h-2.145c-0.45 0-0.819 0.369-0.819 0.819 0 0.001 0 0.001 0 0.002 0 0.451 0.366 0.817 0.817 0.817 0.001 0 0.002 0 0.002 0h-0zM21.366 15.929h2.144c0.45 0 0.819-0.369 0.819-0.819s-0.369-0.819-0.819-0.819h-2.145c-0.45 0-0.819 0.369-0.819 0.819 0 0.001 0 0.001 0 0.002 0 0.451 0.366 0.817 0.817 0.817 0.001 0 0.002 0 0.002 0h-0zM8.497 6.506h8.582c0.45 0 0.819-0.369 0.819-0.819s-0.369-0.819-0.819-0.819h-8.582c-0.45 0-0.819 0.369-0.819 0.819 0 0.001 0 0.001 0 0.002 0 0.451 0.366 0.817 0.817 0.817 0.001 0 0.002 0 0.002 0h-0zM8.497 9.347h6.431c0.451 0 0.819-0.369 0.819-0.819s-0.369-0.819-0.819-0.819h-6.431c-0.45 0-0.819 0.369-0.819 0.819 0 0.001 0 0.001 0 0.002 0 0.451 0.366 0.817 0.817 0.817 0.001 0 0.002 0 0.002 0h-0zM21.366 6.506h2.144c0.45 0 0.819-0.369 0.819-0.819s-0.369-0.819-0.819-0.819h-2.145c-0.45 0-0.819 0.369-0.819 0.819 0 0.001 0 0.001 0 0.002 0 0.451 0.366 0.817 0.817 0.817 0.001 0 0.002 0 0.002 0h-0zM21.366 9.347h2.144c0.45 0 0.819-0.369 0.819-0.819s-0.369-0.819-0.819-0.819h-2.145c-0.45 0-0.819 0.369-0.819 0.819 0 0.001 0 0.001 0 0.002 0 0.451 0.366 0.817 0.817 0.817 0.001 0 0.002 0 0.002 0h-0zM8.497 19.738h8.582c0.45 0 0.819-0.369 0.819-0.819s-0.369-0.819-0.819-0.819h-8.582c-0.45 0-0.819 0.369-0.819 0.819 0 0 0 0.001 0 0.002 0 0.451 0.366 0.817 0.817 0.817 0.001 0 0.002 0 0.002 0h-0zM8.497 22.578h6.431c0.451 0 0.819-0.369 0.819-0.819s-0.369-0.819-0.819-0.819h-6.431c-0.45 0-0.819 0.369-0.819 0.819 0 0.001 0 0.001 0 0.002 0 0.451 0.366 0.817 0.817 0.817 0.001 0 0.002 0 0.002 0h-0zM21.366 19.738h2.144c0.45 0 0.819-0.369 0.819-0.819s-0.369-0.819-0.819-0.819h-2.145c-0.45 0-0.819 0.369-0.819 0.819 0 0 0 0.001 0 0.002 0 0.451 0.366 0.817 0.817 0.817 0.001 0 0.002 0 0.002 0h-0zM21.366 22.578h2.144c0.45 0 0.819-0.369 0.819-0.819s-0.369-0.819-0.819-0.819h-2.145c-0.45 0-0.819 0.369-0.819 0.819 0 0.001 0 0.001 0 0.002 0 0.451 0.366 0.817 0.817 0.817 0.001 0 0.002 0 0.002 0h-0z">
			</path>
		</symbol>
		<symbol id="icon-arrow-back" viewBox="0 0 24 24">
			<path fill="#ff751d" style="fill: var(--color1, #ff751d)" d="M28 14.667h-18.893l4.773-4.787-1.88-1.88-8 8 8 8 1.88-1.88-4.773-4.787h18.893v-2.667z">
			</path>
		</symbol>
		<symbol id="left" viewBox="0 0 19 32">
<path fill="none" stroke="#ff751d" style="stroke: var(--color1, #ff751d)" stroke-linejoin="miter" stroke-linecap="butt" stroke-miterlimit="4" stroke-width="5.3333" d="M16 2.667l-10.667 13.333 10.667 13.333"></path>
</symbol>
<symbol id="right" viewBox="0 0 19 32">
<path fill="none" stroke="#ff751d" style="stroke: var(--color1, #ff751d)" stroke-linejoin="miter" stroke-linecap="butt" stroke-miterlimit="4" stroke-width="5.3333" d="M2.667 2.667l10.667 13.333-10.667 13.333"></path>
</symbol>		
	</defs>
</svg>
